<?xml version="1.0" encoding="UTF-8" standalone="no"?>
<!-- Created with Inkscape (http://www.inkscape.org/) -->
<svg
   xmlns:dc="http://purl.org/dc/elements/1.1/"
   xmlns:cc="http://creativecommons.org/ns#"
   xmlns:rdf="http://www.w3.org/1999/02/22-rdf-syntax-ns#"
   xmlns:svg="http://www.w3.org/2000/svg"
   xmlns="http://www.w3.org/2000/svg"
   xmlns:sodipodi="http://sodipodi.sourceforge.net/DTD/sodipodi-0.dtd"
   xmlns:inkscape="http://www.inkscape.org/namespaces/inkscape"
   width="744.09448819"
   height="1052.3622047"
   id="svg2"
   sodipodi:version="0.32"
   inkscape:version="0.46"
   sodipodi:docname="standard2010_template_approx.svg"
   inkscape:output_extension="org.inkscape.output.svg.inkscape">
  <defs
     id="defs4">
    <inkscape:perspective
       sodipodi:type="inkscape:persp3d"
       inkscape:vp_x="0 : 526.18109 : 1"
       inkscape:vp_y="0 : 1000 : 0"
       inkscape:vp_z="744.09448 : 526.18109 : 1"
       inkscape:persp3d-origin="372.04724 : 350.78739 : 1"
       id="perspective10" />
  </defs>
  <sodipodi:namedview
     id="base"
     pagecolor="#ffffff"
     bordercolor="#666666"
     borderopacity="1.0"
     gridtolerance="10000"
     guidetolerance="10"
     objecttolerance="10"
     inkscape:pageopacity="0.0"
     inkscape:pageshadow="2"
     inkscape:zoom="0.74005634"
     inkscape:cx="319.48214"
     inkscape:cy="616.56003"
     inkscape:document-units="mm"
     inkscape:current-layer="layer1"
     showgrid="false"
     inkscape:window-width="1280"
     inkscape:window-height="964"
     inkscape:window-x="-5"
     inkscape:window-y="-3" />
  <metadata
     id="metadata7">
    <rdf:RDF>
      <cc:Work
         rdf:about="">
        <dc:format>image/svg+xml</dc:format>
        <dc:type
           rdf:resource="http://purl.org/dc/dcmitype/StillImage" />
      </cc:Work>
    </rdf:RDF>
  </metadata>
  <g
     inkscape:label="Layer 1"
     inkscape:groupmode="layer"
     id="layer1">
    <g
       id="g3214"
       transform="translate(70.859741,-277.16266)">
      <path
         id="path2383"
         d="M 73.78125,555.3125 C 28.432983,607.89992 0.99999999,676.35194 1,751.1875 C 1,916.88746 135.48755,1051.3751 301.1875,1051.375 C 466.88747,1051.375 601.37502,916.88746 601.375,751.1875 C 601.375,676.35194 573.91077,607.89992 528.5625,555.3125 L 73.78125,555.3125 z"
         style="opacity:1;fill:none;fill-opacity:0.15887852;stroke:#000000;stroke-width:1.99842525;stroke-miterlimit:4;stroke-dasharray:none;stroke-dashoffset:0;stroke-opacity:1" />
      <path
         transform="matrix(0.6750624,0,0,0.8332802,139.3244,439.45558)"
         d="M 369.51631,374.09445 A 129.74129,105.10686 0 1 1 110.03374,374.09445 A 129.74129,105.10686 0 1 1 369.51631,374.09445 z"
         sodipodi:ry="105.10686"
         sodipodi:rx="129.74129"
         sodipodi:cy="374.09445"
         sodipodi:cx="239.77502"
         id="path3158"
         style="opacity:1;fill:none;fill-opacity:0.15887852;stroke:#000000;stroke-width:2.66452885;stroke-miterlimit:4;stroke-dasharray:none;stroke-dashoffset:0;stroke-opacity:1"
         sodipodi:type="arc" />
      <path
         sodipodi:type="arc"
         style="opacity:1;fill:none;fill-opacity:0.15887852;stroke:#000000;stroke-width:3.34018803;stroke-miterlimit:4;stroke-dasharray:none;stroke-dashoffset:0;stroke-opacity:1"
         id="path3160"
         sodipodi:cx="239.77502"
         sodipodi:cy="374.09445"
         sodipodi:rx="129.74129"
         sodipodi:ry="105.10686"
         d="M 369.51631,374.09445 A 129.74129,105.10686 0 1 1 110.03374,374.09445 A 129.74129,105.10686 0 1 1 369.51631,374.09445 z"
         transform="matrix(0.5385096,0,0,0.6647228,-22.00698,377.6104)" />
      <path
         transform="matrix(0.5385096,0,0,0.6647228,48.044201,696.58245)"
         d="M 369.51631,374.09445 A 129.74129,105.10686 0 1 1 110.03374,374.09445 A 129.74129,105.10686 0 1 1 369.51631,374.09445 z"
         sodipodi:ry="105.10686"
         sodipodi:rx="129.74129"
         sodipodi:cy="374.09445"
         sodipodi:cx="239.77502"
         id="path3162"
         style="opacity:1;fill:none;fill-opacity:0.15887852;stroke:#000000;stroke-width:3.34018803;stroke-miterlimit:4;stroke-dasharray:none;stroke-dashoffset:0;stroke-opacity:1"
         sodipodi:type="arc" />
      <path
         sodipodi:type="arc"
         style="opacity:1;fill:none;fill-opacity:0.15887852;stroke:#000000;stroke-width:3.34018803;stroke-miterlimit:4;stroke-dasharray:none;stroke-dashoffset:0;stroke-opacity:1"
         id="path3164"
         sodipodi:cx="239.77502"
         sodipodi:cy="374.09445"
         sodipodi:rx="129.74129"
         sodipodi:ry="105.10686"
         d="M 369.51631,374.09445 A 129.74129,105.10686 0 1 1 110.03374,374.09445 A 129.74129,105.10686 0 1 1 369.51631,374.09445 z"
         transform="matrix(0.5385096,0,0,0.6647228,296.0757,696.58245)" />
      <path
         transform="matrix(0.5385096,0,0,0.6647228,366.12688,377.6104)"
         d="M 369.51631,374.09445 A 129.74129,105.10686 0 1 1 110.03374,374.09445 A 129.74129,105.10686 0 1 1 369.51631,374.09445 z"
         sodipodi:ry="105.10686"
         sodipodi:rx="129.74129"
         sodipodi:cy="374.09445"
         sodipodi:cx="239.77502"
         id="path3166"
         style="opacity:1;fill:none;fill-opacity:0.15887852;stroke:#000000;stroke-width:3.34018803;stroke-miterlimit:4;stroke-dasharray:none;stroke-dashoffset:0;stroke-opacity:1"
         sodipodi:type="arc" />
    </g>
  </g>
</svg>
