<?xml version="1.0" encoding="UTF-8" standalone="no"?>
<!-- Created with Inkscape (http://www.inkscape.org/) -->
<svg
   xmlns:dc="http://purl.org/dc/elements/1.1/"
   xmlns:cc="http://creativecommons.org/ns#"
   xmlns:rdf="http://www.w3.org/1999/02/22-rdf-syntax-ns#"
   xmlns:svg="http://www.w3.org/2000/svg"
   xmlns="http://www.w3.org/2000/svg"
   xmlns:sodipodi="http://sodipodi.sourceforge.net/DTD/sodipodi-0.dtd"
   xmlns:inkscape="http://www.inkscape.org/namespaces/inkscape"
   width="800"
   height="600"
   id="svg2"
   sodipodi:version="0.32"
   inkscape:version="0.46"
   version="1.0"
   sodipodi:docname="cmdragons.svg"
   inkscape:output_extension="org.inkscape.output.svg.inkscape">
  <defs
     id="defs4">
    <inkscape:perspective
       sodipodi:type="inkscape:persp3d"
       inkscape:vp_x="0 : 526.18109 : 1"
       inkscape:vp_y="6.1230318e-14 : 1000 : 0"
       inkscape:vp_z="744.09448 : 526.18109 : 1"
       inkscape:persp3d-origin="372.04724 : 350.78739 : 1"
       id="perspective10" />
    <inkscape:perspective
       id="perspective3292"
       inkscape:persp3d-origin="372.04724 : 350.78739 : 1"
       inkscape:vp_z="744.09448 : 526.18109 : 1"
       inkscape:vp_y="0 : 1000 : 0"
       inkscape:vp_x="0 : 526.18109 : 1"
       sodipodi:type="inkscape:persp3d" />
    <inkscape:perspective
       id="perspective4008"
       inkscape:persp3d-origin="372.04724 : 350.78739 : 1"
       inkscape:vp_z="744.09448 : 526.18109 : 1"
       inkscape:vp_y="0 : 1000 : 0"
       inkscape:vp_x="0 : 526.18109 : 1"
       sodipodi:type="inkscape:persp3d" />
    <inkscape:perspective
       id="perspective2567"
       inkscape:persp3d-origin="372.04724 : 350.78739 : 1"
       inkscape:vp_z="744.09448 : 526.18109 : 1"
       inkscape:vp_y="0 : 1000 : 0"
       inkscape:vp_x="0 : 526.18109 : 1"
       sodipodi:type="inkscape:persp3d" />
    <inkscape:perspective
       id="perspective2624"
       inkscape:persp3d-origin="372.04724 : 350.78739 : 1"
       inkscape:vp_z="744.09448 : 526.18109 : 1"
       inkscape:vp_y="0 : 1000 : 0"
       inkscape:vp_x="0 : 526.18109 : 1"
       sodipodi:type="inkscape:persp3d" />
  </defs>
  <sodipodi:namedview
     id="base"
     pagecolor="#000000"
     bordercolor="#666666"
     borderopacity="1.0"
     gridtolerance="10000"
     guidetolerance="10"
     objecttolerance="10"
     inkscape:pageopacity="0"
     inkscape:pageshadow="2"
     inkscape:zoom="1.1197531"
     inkscape:cx="229.00531"
     inkscape:cy="217.09176"
     inkscape:document-units="px"
     inkscape:current-layer="layer1"
     showgrid="false"
     inkscape:window-width="1400"
     inkscape:window-height="986"
     inkscape:window-x="0"
     inkscape:window-y="0" />
  <metadata
     id="metadata7">
    <rdf:RDF>
      <cc:Work
         rdf:about="">
        <dc:format>image/svg+xml</dc:format>
        <dc:type
           rdf:resource="http://purl.org/dc/dcmitype/StillImage" />
      </cc:Work>
    </rdf:RDF>
  </metadata>
  <g
     inkscape:label="Layer 1"
     inkscape:groupmode="layer"
     id="layer1">
    <rect
       y="9.0820308e-08"
       x="5.682373e-08"
       height="600"
       width="800"
       id="use2405"
       style="fill:#008000;fill-opacity:1;stroke:none;stroke-width:1;stroke-miterlimit:4;stroke-dasharray:none;stroke-opacity:1"
       sodipodi:insensitive="true" />
    <g
       id="g3320"
       sodipodi:insensitive="true">
      <rect
         y="400.49997"
         x="0.50000006"
         height="199.00002"
         width="199.00002"
         id="rect3195"
         style="fill:none;fill-opacity:1;stroke:#000000;stroke-width:1.00000012;stroke-miterlimit:4;stroke-dasharray:none;stroke-opacity:1" />
      <rect
         style="fill:none;fill-opacity:1;stroke:#000000;stroke-width:1.00000012;stroke-miterlimit:4;stroke-dasharray:none;stroke-opacity:1"
         id="rect3197"
         width="199.00002"
         height="199.00002"
         x="200.5"
         y="400.49997" />
      <rect
         y="400.49997"
         x="400.5"
         height="199.00002"
         width="199.00002"
         id="rect3199"
         style="fill:none;fill-opacity:1;stroke:#000000;stroke-width:1.00000012;stroke-miterlimit:4;stroke-dasharray:none;stroke-opacity:1" />
      <rect
         style="fill:none;fill-opacity:1;stroke:#000000;stroke-width:1.00000012;stroke-miterlimit:4;stroke-dasharray:none;stroke-opacity:1"
         id="rect3201"
         width="199.00002"
         height="199.00002"
         x="600.5"
         y="400.49997" />
      <rect
         style="fill:none;fill-opacity:1;stroke:#000000;stroke-width:1.00000012;stroke-miterlimit:4;stroke-dasharray:none;stroke-opacity:1"
         id="rect3203"
         width="199.00002"
         height="199.00002"
         x="0.50000006"
         y="200.49998" />
      <rect
         y="200.49998"
         x="200.5"
         height="199.00002"
         width="199.00002"
         id="rect3205"
         style="fill:none;fill-opacity:1;stroke:#000000;stroke-width:1.00000012;stroke-miterlimit:4;stroke-dasharray:none;stroke-opacity:1" />
      <rect
         style="fill:none;fill-opacity:1;stroke:#000000;stroke-width:1.00000012;stroke-miterlimit:4;stroke-dasharray:none;stroke-opacity:1"
         id="rect3207"
         width="199.00002"
         height="199.00002"
         x="400.5"
         y="200.49998" />
      <rect
         y="200.49998"
         x="600.5"
         height="199.00002"
         width="199.00002"
         id="rect3209"
         style="fill:none;fill-opacity:1;stroke:#000000;stroke-width:1.00000012;stroke-miterlimit:4;stroke-dasharray:none;stroke-opacity:1" />
      <rect
         y="0.49998468"
         x="0.50000006"
         height="199.00002"
         width="199.00002"
         id="rect3211"
         style="fill:none;fill-opacity:1;stroke:#000000;stroke-width:1.00000012;stroke-miterlimit:4;stroke-dasharray:none;stroke-opacity:1" />
      <rect
         style="fill:none;fill-opacity:1;stroke:#000000;stroke-width:1.00000012;stroke-miterlimit:4;stroke-dasharray:none;stroke-opacity:1"
         id="rect3213"
         width="199.00002"
         height="199.00002"
         x="200.5"
         y="0.49998468" />
      <rect
         y="0.49998468"
         x="400.5"
         height="199.00002"
         width="199.00002"
         id="rect3215"
         style="fill:none;fill-opacity:1;stroke:#000000;stroke-width:1.00000012;stroke-miterlimit:4;stroke-dasharray:none;stroke-opacity:1" />
      <rect
         style="fill:none;fill-opacity:1;stroke:#000000;stroke-width:1.00000012;stroke-miterlimit:4;stroke-dasharray:none;stroke-opacity:1"
         id="rect3217"
         width="199.00002"
         height="199.00002"
         x="600.5"
         y="0.49998468" />
    </g>
    <rect
       style="opacity:1;fill:#ffff00;fill-opacity:1;stroke:none;stroke-width:1;stroke-miterlimit:4;stroke-dasharray:none;stroke-opacity:1"
       id="rect3176"
       width="3"
       height="140"
       x="194"
       y="59" />
    <rect
       y="59"
       x="394"
       height="140"
       width="3"
       id="rect3335"
       style="fill:#ffff00;fill-opacity:1;stroke:none;stroke-width:1;stroke-miterlimit:4;stroke-dasharray:none;stroke-opacity:1" />
    <rect
       style="fill:#ffff00;fill-opacity:1;stroke:none;stroke-width:1;stroke-miterlimit:4;stroke-dasharray:none;stroke-opacity:1"
       id="rect3337"
       width="3"
       height="140"
       x="594"
       y="59" />
    <rect
       y="59"
       x="794"
       height="140"
       width="3"
       id="rect3339"
       style="fill:#ffff00;fill-opacity:1;stroke:none;stroke-width:1;stroke-miterlimit:4;stroke-dasharray:none;stroke-opacity:1" />
    <rect
       y="259"
       x="194"
       height="140"
       width="3"
       id="rect3343"
       style="fill:#ffff00;fill-opacity:1;stroke:none;stroke-width:1;stroke-miterlimit:4;stroke-dasharray:none;stroke-opacity:1" />
    <rect
       style="fill:#ffff00;fill-opacity:1;stroke:none;stroke-width:1;stroke-miterlimit:4;stroke-dasharray:none;stroke-opacity:1"
       id="rect3345"
       width="3"
       height="140"
       x="394"
       y="259" />
    <rect
       y="259"
       x="594"
       height="140"
       width="3"
       id="rect3347"
       style="fill:#ffff00;fill-opacity:1;stroke:none;stroke-width:1;stroke-miterlimit:4;stroke-dasharray:none;stroke-opacity:1" />
    <rect
       style="fill:#ffff00;fill-opacity:1;stroke:none;stroke-width:1;stroke-miterlimit:4;stroke-dasharray:none;stroke-opacity:1"
       id="rect3349"
       width="3"
       height="140"
       x="794"
       y="259" />
    <rect
       style="fill:#ffff00;fill-opacity:1;stroke:none;stroke-width:1;stroke-miterlimit:4;stroke-dasharray:none;stroke-opacity:1"
       id="rect3351"
       width="3"
       height="140"
       x="194"
       y="459" />
    <rect
       y="459"
       x="394"
       height="140"
       width="3"
       id="rect3353"
       style="fill:#ffff00;fill-opacity:1;stroke:none;stroke-width:1;stroke-miterlimit:4;stroke-dasharray:none;stroke-opacity:1" />
    <rect
       style="fill:#ffff00;fill-opacity:1;stroke:none;stroke-width:1;stroke-miterlimit:4;stroke-dasharray:none;stroke-opacity:1"
       id="rect3355"
       width="3"
       height="140"
       x="594"
       y="459" />
    <rect
       y="459"
       x="794"
       height="140"
       width="3"
       id="rect3357"
       style="fill:#ffff00;fill-opacity:1;stroke:none;stroke-width:1;stroke-miterlimit:4;stroke-dasharray:none;stroke-opacity:1" />
    <g
       id="g2556"
       transform="translate(344.79057,-225.26623)">
      <path
         style="fill:#000000"
         d="M -311.05421,254.50961 C -327.45553,270.4966 -337.64795,292.81411 -337.64795,317.50961 C -337.64795,366.08561 -298.22395,405.50962 -249.64796,405.50961 C -201.07196,405.50961 -161.64796,366.08561 -161.64796,317.50961 C -161.64796,292.8184 -171.8454,270.49602 -188.24171,254.50961 L -311.05421,254.50961 z"
         id="path2517" />
      <path
         sodipodi:type="arc"
         style="fill:#0000ff"
         id="path2522"
         sodipodi:cx="-62.516972"
         sodipodi:cy="112.49392"
         sodipodi:rx="22.101959"
         sodipodi:ry="23.996412"
         d="M -40.415012,112.49392 A 22.101959,23.996412 0 1 1 -84.618931,112.49392 A 22.101959,23.996412 0 1 1 -40.415012,112.49392 z"
         transform="matrix(1.1311214,0,0,1.0418224,-178.93367,200.31093)" />
    </g>
    <path
       sodipodi:type="arc"
       style="fill:#00ff00"
       id="path2560"
       sodipodi:cx="-209.02139"
       sodipodi:cy="177.53683"
       sodipodi:rx="23.364929"
       sodipodi:ry="23.364929"
       d="M -185.65646,177.53683 A 23.364929,23.364929 0 1 1 -232.38632,177.53683 A 23.364929,23.364929 0 1 1 -185.65646,177.53683 z"
       transform="matrix(0.8559838,0,0,0.8559838,222.59465,-60.133122)" />
    <path
       transform="matrix(0.8559838,0,0,0.8559838,325.52843,-60.133122)"
       d="M -185.65646,177.53683 A 23.364929,23.364929 0 1 1 -232.38632,177.53683 A 23.364929,23.364929 0 1 1 -185.65646,177.53683 z"
       sodipodi:ry="23.364929"
       sodipodi:rx="23.364929"
       sodipodi:cy="177.53683"
       sodipodi:cx="-209.02139"
       id="path2562"
       style="fill:#00ff00"
       sodipodi:type="arc" />
    <path
       sodipodi:type="arc"
       style="fill:#00ff00"
       id="path2566"
       sodipodi:cx="-209.02139"
       sodipodi:cy="177.53683"
       sodipodi:rx="23.364929"
       sodipodi:ry="23.364929"
       d="M -185.65646,177.53683 A 23.364929,23.364929 0 1 1 -232.38632,177.53683 A 23.364929,23.364929 0 1 1 -185.65646,177.53683 z"
       transform="matrix(0.8559838,0,0,0.8559838,274.69123,-1.4104262)" />
    <g
       transform="translate(546.86563,-224.00326)"
       id="g2605">
      <path
         id="path2607"
         d="M -311.05421,254.50961 C -327.45553,270.4966 -337.64795,292.81411 -337.64795,317.50961 C -337.64795,366.08561 -298.22395,405.50962 -249.64796,405.50961 C -201.07196,405.50961 -161.64796,366.08561 -161.64796,317.50961 C -161.64796,292.8184 -171.8454,270.49602 -188.24171,254.50961 L -311.05421,254.50961 z"
         style="fill:#000000" />
      <path
         transform="matrix(1.1311214,0,0,1.0418224,-178.93367,200.31093)"
         d="M -40.415012,112.49392 A 22.101959,23.996412 0 1 1 -84.618931,112.49392 A 22.101959,23.996412 0 1 1 -40.415012,112.49392 z"
         sodipodi:ry="23.996412"
         sodipodi:rx="22.101959"
         sodipodi:cy="112.49392"
         sodipodi:cx="-62.516972"
         id="path2609"
         style="fill:#0000ff"
         sodipodi:type="arc" />
    </g>
    <path
       sodipodi:type="arc"
       style="fill:#00ff00"
       id="path2613"
       sodipodi:cx="-209.02139"
       sodipodi:cy="177.53683"
       sodipodi:rx="23.364929"
       sodipodi:ry="23.364929"
       d="M -185.65646,177.53683 A 23.364929,23.364929 0 1 1 -232.38632,177.53683 A 23.364929,23.364929 0 1 1 -185.65646,177.53683 z"
       transform="matrix(0.8559838,0,0,0.8559838,527.60349,-94.870153)" />
    <path
       transform="matrix(0.8559838,0,0,0.8559838,442.66971,-6.4623026)"
       d="M -185.65646,177.53683 A 23.364929,23.364929 0 1 1 -232.38632,177.53683 A 23.364929,23.364929 0 1 1 -185.65646,177.53683 z"
       sodipodi:ry="23.364929"
       sodipodi:rx="23.364929"
       sodipodi:cy="177.53683"
       sodipodi:cx="-209.02139"
       id="path2615"
       style="fill:#00ff00"
       sodipodi:type="arc" />
    <path
       transform="matrix(0.8559838,0,0,0.8559838,509.60349,-6.4623026)"
       d="M -185.65646,177.53683 A 23.364929,23.364929 0 1 1 -232.38632,177.53683 A 23.364929,23.364929 0 1 1 -185.65646,177.53683 z"
       sodipodi:ry="23.364929"
       sodipodi:rx="23.364929"
       sodipodi:cy="177.53683"
       sodipodi:cx="-209.02139"
       id="path2617"
       style="fill:#00ff00"
       sodipodi:type="arc" />
    <g
       id="g2619"
       transform="translate(578.43986,3.7889074)">
      <g
         transform="translate(166.71192,-227.79217)"
         id="g2621">
        <path
           id="path2623"
           d="M -311.05421,254.50961 C -327.45553,270.4966 -337.64795,292.81411 -337.64795,317.50961 C -337.64795,366.08561 -298.22395,405.50962 -249.64796,405.50961 C -201.07196,405.50961 -161.64796,366.08561 -161.64796,317.50961 C -161.64796,292.8184 -171.8454,270.49602 -188.24171,254.50961 L -311.05421,254.50961 z"
           style="fill:#000000" />
        <path
           transform="matrix(1.1311214,0,0,1.0418224,-178.93367,200.31093)"
           d="M -40.415012,112.49392 A 22.101959,23.996412 0 1 1 -84.618931,112.49392 A 22.101959,23.996412 0 1 1 -40.415012,112.49392 z"
           sodipodi:ry="23.996412"
           sodipodi:rx="22.101959"
           sodipodi:cy="112.49392"
           sodipodi:cx="-62.516972"
           id="path2625"
           style="fill:#0000ff"
           sodipodi:type="arc" />
      </g>
      <path
         transform="matrix(0.8559838,0,0,0.8559838,44.516,-98.65906)"
         d="M -185.65646,177.53683 A 23.364929,23.364929 0 1 1 -232.38632,177.53683 A 23.364929,23.364929 0 1 1 -185.65646,177.53683 z"
         sodipodi:ry="23.364929"
         sodipodi:rx="23.364929"
         sodipodi:cy="177.53683"
         sodipodi:cx="-209.02139"
         id="path2627"
         style="fill:#00ff00"
         sodipodi:type="arc" />
      <path
         sodipodi:type="arc"
         style="fill:#00ff00"
         id="path2629"
         sodipodi:cx="-209.02139"
         sodipodi:cy="177.53683"
         sodipodi:rx="23.364929"
         sodipodi:ry="23.364929"
         d="M -185.65646,177.53683 A 23.364929,23.364929 0 1 1 -232.38632,177.53683 A 23.364929,23.364929 0 1 1 -185.65646,177.53683 z"
         transform="matrix(0.8559838,0,0,0.8559838,147.44978,-98.65906)" />
      <path
         transform="matrix(0.8559838,0,0,0.8559838,129.44978,-10.25121)"
         d="M -185.65646,177.53683 A 23.364929,23.364929 0 1 1 -232.38632,177.53683 A 23.364929,23.364929 0 1 1 -185.65646,177.53683 z"
         sodipodi:ry="23.364929"
         sodipodi:rx="23.364929"
         sodipodi:cy="177.53683"
         sodipodi:cx="-209.02139"
         id="path2633"
         style="fill:#00ff00"
         sodipodi:type="arc" />
    </g>
    <g
       transform="translate(781.77789,6.3148456)"
       id="g2635">
      <g
         id="g2637"
         transform="translate(166.71192,-227.79217)">
        <path
           style="fill:#000000"
           d="M -311.05421,254.50961 C -327.45553,270.4966 -337.64795,292.81411 -337.64795,317.50961 C -337.64795,366.08561 -298.22395,405.50962 -249.64796,405.50961 C -201.07196,405.50961 -161.64796,366.08561 -161.64796,317.50961 C -161.64796,292.8184 -171.8454,270.49602 -188.24171,254.50961 L -311.05421,254.50961 z"
           id="path2639" />
        <path
           sodipodi:type="arc"
           style="fill:#0000ff"
           id="path2641"
           sodipodi:cx="-62.516972"
           sodipodi:cy="112.49392"
           sodipodi:rx="22.101959"
           sodipodi:ry="23.996412"
           d="M -40.415012,112.49392 A 22.101959,23.996412 0 1 1 -84.618931,112.49392 A 22.101959,23.996412 0 1 1 -40.415012,112.49392 z"
           transform="matrix(1.1311214,0,0,1.0418224,-178.93367,200.31093)" />
      </g>
      <path
         sodipodi:type="arc"
         style="fill:#00ff00"
         id="path2643"
         sodipodi:cx="-209.02139"
         sodipodi:cy="177.53683"
         sodipodi:rx="23.364929"
         sodipodi:ry="23.364929"
         d="M -185.65646,177.53683 A 23.364929,23.364929 0 1 1 -232.38632,177.53683 A 23.364929,23.364929 0 1 1 -185.65646,177.53683 z"
         transform="matrix(0.8559838,0,0,0.8559838,44.516,-98.65906)" />
      <path
         transform="matrix(0.8559838,0,0,0.8559838,147.44978,-98.65906)"
         d="M -185.65646,177.53683 A 23.364929,23.364929 0 1 1 -232.38632,177.53683 A 23.364929,23.364929 0 1 1 -185.65646,177.53683 z"
         sodipodi:ry="23.364929"
         sodipodi:rx="23.364929"
         sodipodi:cy="177.53683"
         sodipodi:cx="-209.02139"
         id="path2645"
         style="fill:#00ff00"
         sodipodi:type="arc" />
      <path
         sodipodi:type="arc"
         style="fill:#00ff00"
         id="path2647"
         sodipodi:cx="-209.02139"
         sodipodi:cy="177.53683"
         sodipodi:rx="23.364929"
         sodipodi:ry="23.364929"
         d="M -185.65646,177.53683 A 23.364929,23.364929 0 1 1 -232.38632,177.53683 A 23.364929,23.364929 0 1 1 -185.65646,177.53683 z"
         transform="matrix(0.8559838,0,0,0.8559838,62.516,-10.25121)" />
    </g>
    <g
       id="g2651"
       transform="translate(179.34162,198.28615)">
      <g
         transform="translate(166.71192,-227.79217)"
         id="g2653">
        <path
           id="path2655"
           d="M -311.05421,254.50961 C -327.45553,270.4966 -337.64795,292.81411 -337.64795,317.50961 C -337.64795,366.08561 -298.22395,405.50962 -249.64796,405.50961 C -201.07196,405.50961 -161.64796,366.08561 -161.64796,317.50961 C -161.64796,292.8184 -171.8454,270.49602 -188.24171,254.50961 L -311.05421,254.50961 z"
           style="fill:#000000" />
        <path
           transform="matrix(1.1311214,0,0,1.0418224,-178.93367,200.31093)"
           d="M -40.415012,112.49392 A 22.101959,23.996412 0 1 1 -84.618931,112.49392 A 22.101959,23.996412 0 1 1 -40.415012,112.49392 z"
           sodipodi:ry="23.996412"
           sodipodi:rx="22.101959"
           sodipodi:cy="112.49392"
           sodipodi:cx="-62.516972"
           id="path2657"
           style="fill:#0000ff"
           sodipodi:type="arc" />
      </g>
      <path
         transform="matrix(0.8559838,0,0,0.8559838,44.516,-98.65906)"
         d="M -185.65646,177.53683 A 23.364929,23.364929 0 1 1 -232.38632,177.53683 A 23.364929,23.364929 0 1 1 -185.65646,177.53683 z"
         sodipodi:ry="23.364929"
         sodipodi:rx="23.364929"
         sodipodi:cy="177.53683"
         sodipodi:cx="-209.02139"
         id="path2659"
         style="fill:#00ff00"
         sodipodi:type="arc" />
      <path
         sodipodi:type="arc"
         style="fill:#00ff00"
         id="path2661"
         sodipodi:cx="-209.02139"
         sodipodi:cy="177.53683"
         sodipodi:rx="23.364929"
         sodipodi:ry="23.364929"
         d="M -185.65646,177.53683 A 23.364929,23.364929 0 1 1 -232.38632,177.53683 A 23.364929,23.364929 0 1 1 -185.65646,177.53683 z"
         transform="matrix(0.8559838,0,0,0.8559838,147.44978,-98.65906)" />
      <path
         transform="matrix(0.8559838,0,0,0.8559838,62.516,-10.25121)"
         d="M -185.65646,177.53683 A 23.364929,23.364929 0 1 1 -232.38632,177.53683 A 23.364929,23.364929 0 1 1 -185.65646,177.53683 z"
         sodipodi:ry="23.364929"
         sodipodi:rx="23.364929"
         sodipodi:cy="177.53683"
         sodipodi:cx="-209.02139"
         id="path2663"
         style="fill:#00ff00"
         sodipodi:type="arc" />
    </g>
    <g
       transform="translate(380.15371,199.54912)"
       id="g2667">
      <g
         id="g2669"
         transform="translate(166.71192,-227.79217)">
        <path
           style="fill:#000000"
           d="M -311.05421,254.50961 C -327.45553,270.4966 -337.64795,292.81411 -337.64795,317.50961 C -337.64795,366.08561 -298.22395,405.50962 -249.64796,405.50961 C -201.07196,405.50961 -161.64796,366.08561 -161.64796,317.50961 C -161.64796,292.8184 -171.8454,270.49602 -188.24171,254.50961 L -311.05421,254.50961 z"
           id="path2671" />
        <path
           sodipodi:type="arc"
           style="fill:#0000ff"
           id="path2673"
           sodipodi:cx="-62.516972"
           sodipodi:cy="112.49392"
           sodipodi:rx="22.101959"
           sodipodi:ry="23.996412"
           d="M -40.415012,112.49392 A 22.101959,23.996412 0 1 1 -84.618931,112.49392 A 22.101959,23.996412 0 1 1 -40.415012,112.49392 z"
           transform="matrix(1.1311214,0,0,1.0418224,-178.93367,200.31093)" />
      </g>
      <path
         sodipodi:type="arc"
         style="fill:#00ff00"
         id="path2675"
         sodipodi:cx="-209.02139"
         sodipodi:cy="177.53683"
         sodipodi:rx="23.364929"
         sodipodi:ry="23.364929"
         d="M -185.65646,177.53683 A 23.364929,23.364929 0 1 1 -232.38632,177.53683 A 23.364929,23.364929 0 1 1 -185.65646,177.53683 z"
         transform="matrix(0.8559838,0,0,0.8559838,44.516,-98.65906)" />
      <path
         transform="matrix(0.8559838,0,0,0.8559838,147.44978,-98.65906)"
         d="M -185.65646,177.53683 A 23.364929,23.364929 0 1 1 -232.38632,177.53683 A 23.364929,23.364929 0 1 1 -185.65646,177.53683 z"
         sodipodi:ry="23.364929"
         sodipodi:rx="23.364929"
         sodipodi:cy="177.53683"
         sodipodi:cx="-209.02139"
         id="path2677"
         style="fill:#00ff00"
         sodipodi:type="arc" />
      <path
         sodipodi:type="arc"
         style="fill:#00ff00"
         id="path2679"
         sodipodi:cx="-209.02139"
         sodipodi:cy="177.53683"
         sodipodi:rx="23.364929"
         sodipodi:ry="23.364929"
         d="M -185.65646,177.53683 A 23.364929,23.364929 0 1 1 -232.38632,177.53683 A 23.364929,23.364929 0 1 1 -185.65646,177.53683 z"
         transform="matrix(0.8559838,0,0,0.8559838,62.516,-10.25121)" />
      <path
         sodipodi:type="arc"
         style="fill:#00ff00"
         id="path2681"
         sodipodi:cx="-209.02139"
         sodipodi:cy="177.53683"
         sodipodi:rx="23.364929"
         sodipodi:ry="23.364929"
         d="M -185.65646,177.53683 A 23.364929,23.364929 0 1 1 -232.38632,177.53683 A 23.364929,23.364929 0 1 1 -185.65646,177.53683 z"
         transform="matrix(0.8559838,0,0,0.8559838,129.44978,-10.25121)" />
    </g>
    <g
       id="g2683"
       transform="translate(588.54361,199.54912)">
      <g
         transform="translate(166.71192,-227.79217)"
         id="g2685">
        <path
           id="path2687"
           d="M -311.05421,254.50961 C -327.45553,270.4966 -337.64795,292.81411 -337.64795,317.50961 C -337.64795,366.08561 -298.22395,405.50962 -249.64796,405.50961 C -201.07196,405.50961 -161.64796,366.08561 -161.64796,317.50961 C -161.64796,292.8184 -171.8454,270.49602 -188.24171,254.50961 L -311.05421,254.50961 z"
           style="fill:#000000" />
        <path
           transform="matrix(1.1311214,0,0,1.0418224,-178.93367,200.31093)"
           d="M -40.415012,112.49392 A 22.101959,23.996412 0 1 1 -84.618931,112.49392 A 22.101959,23.996412 0 1 1 -40.415012,112.49392 z"
           sodipodi:ry="23.996412"
           sodipodi:rx="22.101959"
           sodipodi:cy="112.49392"
           sodipodi:cx="-62.516972"
           id="path2689"
           style="fill:#0000ff"
           sodipodi:type="arc" />
      </g>
      <path
         transform="matrix(0.8559838,0,0,0.8559838,44.516,-98.65906)"
         d="M -185.65646,177.53683 A 23.364929,23.364929 0 1 1 -232.38632,177.53683 A 23.364929,23.364929 0 1 1 -185.65646,177.53683 z"
         sodipodi:ry="23.364929"
         sodipodi:rx="23.364929"
         sodipodi:cy="177.53683"
         sodipodi:cx="-209.02139"
         id="path2691"
         style="fill:#00ff00"
         sodipodi:type="arc" />
      <path
         sodipodi:type="arc"
         style="fill:#00ff00"
         id="path2693"
         sodipodi:cx="-209.02139"
         sodipodi:cy="177.53683"
         sodipodi:rx="23.364929"
         sodipodi:ry="23.364929"
         d="M -185.65646,177.53683 A 23.364929,23.364929 0 1 1 -232.38632,177.53683 A 23.364929,23.364929 0 1 1 -185.65646,177.53683 z"
         transform="matrix(0.8559838,0,0,0.8559838,147.44978,-98.65906)" />
      <path
         transform="matrix(0.8559838,0,0,0.8559838,62.516,-10.25121)"
         d="M -185.65646,177.53683 A 23.364929,23.364929 0 1 1 -232.38632,177.53683 A 23.364929,23.364929 0 1 1 -185.65646,177.53683 z"
         sodipodi:ry="23.364929"
         sodipodi:rx="23.364929"
         sodipodi:cy="177.53683"
         sodipodi:cx="-209.02139"
         id="path2695"
         style="fill:#ff00ff"
         sodipodi:type="arc" />
      <path
         transform="matrix(0.8559838,0,0,0.8559838,129.44978,-10.25121)"
         d="M -185.65646,177.53683 A 23.364929,23.364929 0 1 1 -232.38632,177.53683 A 23.364929,23.364929 0 1 1 -185.65646,177.53683 z"
         sodipodi:ry="23.364929"
         sodipodi:rx="23.364929"
         sodipodi:cy="177.53683"
         sodipodi:cx="-209.02139"
         id="path2697"
         style="fill:#ff00ff"
         sodipodi:type="arc" />
    </g>
    <g
       transform="translate(781.77788,200.81209)"
       id="g2699">
      <g
         id="g2701"
         transform="translate(166.71192,-227.79217)">
        <path
           style="fill:#000000"
           d="M -311.05421,254.50961 C -327.45553,270.4966 -337.64795,292.81411 -337.64795,317.50961 C -337.64795,366.08561 -298.22395,405.50962 -249.64796,405.50961 C -201.07196,405.50961 -161.64796,366.08561 -161.64796,317.50961 C -161.64796,292.8184 -171.8454,270.49602 -188.24171,254.50961 L -311.05421,254.50961 z"
           id="path2703" />
        <path
           sodipodi:type="arc"
           style="fill:#0000ff"
           id="path2705"
           sodipodi:cx="-62.516972"
           sodipodi:cy="112.49392"
           sodipodi:rx="22.101959"
           sodipodi:ry="23.996412"
           d="M -40.415012,112.49392 A 22.101959,23.996412 0 1 1 -84.618931,112.49392 A 22.101959,23.996412 0 1 1 -40.415012,112.49392 z"
           transform="matrix(1.1311214,0,0,1.0418224,-178.93367,200.31093)" />
      </g>
      <path
         sodipodi:type="arc"
         style="fill:#ff00ff"
         id="path2707"
         sodipodi:cx="-209.02139"
         sodipodi:cy="177.53683"
         sodipodi:rx="23.364929"
         sodipodi:ry="23.364929"
         d="M -185.65646,177.53683 A 23.364929,23.364929 0 1 1 -232.38632,177.53683 A 23.364929,23.364929 0 1 1 -185.65646,177.53683 z"
         transform="matrix(0.8559838,0,0,0.8559838,44.516,-98.65906)" />
      <path
         transform="matrix(0.8559838,0,0,0.8559838,147.44978,-98.65906)"
         d="M -185.65646,177.53683 A 23.364929,23.364929 0 1 1 -232.38632,177.53683 A 23.364929,23.364929 0 1 1 -185.65646,177.53683 z"
         sodipodi:ry="23.364929"
         sodipodi:rx="23.364929"
         sodipodi:cy="177.53683"
         sodipodi:cx="-209.02139"
         id="path2709"
         style="fill:#ff00ff"
         sodipodi:type="arc" />
      <path
         sodipodi:type="arc"
         style="fill:#00ff00"
         id="path2711"
         sodipodi:cx="-209.02139"
         sodipodi:cy="177.53683"
         sodipodi:rx="23.364929"
         sodipodi:ry="23.364929"
         d="M -185.65646,177.53683 A 23.364929,23.364929 0 1 1 -232.38632,177.53683 A 23.364929,23.364929 0 1 1 -185.65646,177.53683 z"
         transform="matrix(0.8559838,0,0,0.8559838,62.516,-10.25121)" />
      <path
         sodipodi:type="arc"
         style="fill:#ff00ff"
         id="path2713"
         sodipodi:cx="-209.02139"
         sodipodi:cy="177.53683"
         sodipodi:rx="23.364929"
         sodipodi:ry="23.364929"
         d="M -185.65646,177.53683 A 23.364929,23.364929 0 1 1 -232.38632,177.53683 A 23.364929,23.364929 0 1 1 -185.65646,177.53683 z"
         transform="matrix(0.8559838,0,0,0.8559838,129.44978,-10.25121)" />
    </g>
    <g
       id="g2715"
       transform="translate(178.07864,399.09824)">
      <g
         transform="translate(166.71192,-227.79217)"
         id="g2717">
        <path
           id="path2719"
           d="M -311.05421,254.50961 C -327.45553,270.4966 -337.64795,292.81411 -337.64795,317.50961 C -337.64795,366.08561 -298.22395,405.50962 -249.64796,405.50961 C -201.07196,405.50961 -161.64796,366.08561 -161.64796,317.50961 C -161.64796,292.8184 -171.8454,270.49602 -188.24171,254.50961 L -311.05421,254.50961 z"
           style="fill:#000000" />
        <path
           transform="matrix(1.1311214,0,0,1.0418224,-178.93367,200.31093)"
           d="M -40.415012,112.49392 A 22.101959,23.996412 0 1 1 -84.618931,112.49392 A 22.101959,23.996412 0 1 1 -40.415012,112.49392 z"
           sodipodi:ry="23.996412"
           sodipodi:rx="22.101959"
           sodipodi:cy="112.49392"
           sodipodi:cx="-62.516972"
           id="path2721"
           style="fill:#0000ff"
           sodipodi:type="arc" />
      </g>
      <path
         transform="matrix(0.8559838,0,0,0.8559838,44.516,-98.65906)"
         d="M -185.65646,177.53683 A 23.364929,23.364929 0 1 1 -232.38632,177.53683 A 23.364929,23.364929 0 1 1 -185.65646,177.53683 z"
         sodipodi:ry="23.364929"
         sodipodi:rx="23.364929"
         sodipodi:cy="177.53683"
         sodipodi:cx="-209.02139"
         id="path2723"
         style="fill:#ff00ff"
         sodipodi:type="arc" />
      <path
         sodipodi:type="arc"
         style="fill:#00ff00"
         id="path2725"
         sodipodi:cx="-209.02139"
         sodipodi:cy="177.53683"
         sodipodi:rx="23.364929"
         sodipodi:ry="23.364929"
         d="M -185.65646,177.53683 A 23.364929,23.364929 0 1 1 -232.38632,177.53683 A 23.364929,23.364929 0 1 1 -185.65646,177.53683 z"
         transform="matrix(0.8559838,0,0,0.8559838,147.44978,-98.65906)" />
      <path
         transform="matrix(0.8559838,0,0,0.8559838,62.516,-10.25121)"
         d="M -185.65646,177.53683 A 23.364929,23.364929 0 1 1 -232.38632,177.53683 A 23.364929,23.364929 0 1 1 -185.65646,177.53683 z"
         sodipodi:ry="23.364929"
         sodipodi:rx="23.364929"
         sodipodi:cy="177.53683"
         sodipodi:cx="-209.02139"
         id="path2727"
         style="fill:#ff00ff"
         sodipodi:type="arc" />
      <path
         transform="matrix(0.8559838,0,0,0.8559838,129.44978,-10.25121)"
         d="M -185.65646,177.53683 A 23.364929,23.364929 0 1 1 -232.38632,177.53683 A 23.364929,23.364929 0 1 1 -185.65646,177.53683 z"
         sodipodi:ry="23.364929"
         sodipodi:rx="23.364929"
         sodipodi:cy="177.53683"
         sodipodi:cx="-209.02139"
         id="path2729"
         style="fill:#ff00ff"
         sodipodi:type="arc" />
    </g>
    <g
       transform="translate(380.1537,404.15012)"
       id="g2731">
      <g
         id="g2733"
         transform="translate(166.71192,-227.79217)">
        <path
           style="fill:#000000"
           d="M -311.05421,254.50961 C -327.45553,270.4966 -337.64795,292.81411 -337.64795,317.50961 C -337.64795,366.08561 -298.22395,405.50962 -249.64796,405.50961 C -201.07196,405.50961 -161.64796,366.08561 -161.64796,317.50961 C -161.64796,292.8184 -171.8454,270.49602 -188.24171,254.50961 L -311.05421,254.50961 z"
           id="path2735" />
        <path
           sodipodi:type="arc"
           style="fill:#0000ff"
           id="path2737"
           sodipodi:cx="-62.516972"
           sodipodi:cy="112.49392"
           sodipodi:rx="22.101959"
           sodipodi:ry="23.996412"
           d="M -40.415012,112.49392 A 22.101959,23.996412 0 1 1 -84.618931,112.49392 A 22.101959,23.996412 0 1 1 -40.415012,112.49392 z"
           transform="matrix(1.1311214,0,0,1.0418224,-178.93367,200.31093)" />
      </g>
      <path
         sodipodi:type="arc"
         style="fill:#ff00ff"
         id="path2739"
         sodipodi:cx="-209.02139"
         sodipodi:cy="177.53683"
         sodipodi:rx="23.364929"
         sodipodi:ry="23.364929"
         d="M -185.65646,177.53683 A 23.364929,23.364929 0 1 1 -232.38632,177.53683 A 23.364929,23.364929 0 1 1 -185.65646,177.53683 z"
         transform="matrix(0.8559838,0,0,0.8559838,44.516,-98.65906)" />
      <path
         transform="matrix(0.8559838,0,0,0.8559838,147.44978,-98.65906)"
         d="M -185.65646,177.53683 A 23.364929,23.364929 0 1 1 -232.38632,177.53683 A 23.364929,23.364929 0 1 1 -185.65646,177.53683 z"
         sodipodi:ry="23.364929"
         sodipodi:rx="23.364929"
         sodipodi:cy="177.53683"
         sodipodi:cx="-209.02139"
         id="path2741"
         style="fill:#00ff00"
         sodipodi:type="arc" />
      <path
         sodipodi:type="arc"
         style="fill:#00ff00"
         id="path2743"
         sodipodi:cx="-209.02139"
         sodipodi:cy="177.53683"
         sodipodi:rx="23.364929"
         sodipodi:ry="23.364929"
         d="M -185.65646,177.53683 A 23.364929,23.364929 0 1 1 -232.38632,177.53683 A 23.364929,23.364929 0 1 1 -185.65646,177.53683 z"
         transform="matrix(0.8559838,0,0,0.8559838,62.516,-10.25121)" />
      <path
         sodipodi:type="arc"
         style="fill:#ff00ff"
         id="path2745"
         sodipodi:cx="-209.02139"
         sodipodi:cy="177.53683"
         sodipodi:rx="23.364929"
         sodipodi:ry="23.364929"
         d="M -185.65646,177.53683 A 23.364929,23.364929 0 1 1 -232.38632,177.53683 A 23.364929,23.364929 0 1 1 -185.65646,177.53683 z"
         transform="matrix(0.8559838,0,0,0.8559838,129.44978,-10.25121)" />
    </g>
    <g
       id="g2747"
       transform="translate(583.49173,406.67606)">
      <g
         transform="translate(166.71192,-227.79217)"
         id="g2749">
        <path
           id="path2751"
           d="M -311.05421,254.50961 C -327.45553,270.4966 -337.64795,292.81411 -337.64795,317.50961 C -337.64795,366.08561 -298.22395,405.50962 -249.64796,405.50961 C -201.07196,405.50961 -161.64796,366.08561 -161.64796,317.50961 C -161.64796,292.8184 -171.8454,270.49602 -188.24171,254.50961 L -311.05421,254.50961 z"
           style="fill:#000000" />
        <path
           transform="matrix(1.1311214,0,0,1.0418224,-178.93367,200.31093)"
           d="M -40.415012,112.49392 A 22.101959,23.996412 0 1 1 -84.618931,112.49392 A 22.101959,23.996412 0 1 1 -40.415012,112.49392 z"
           sodipodi:ry="23.996412"
           sodipodi:rx="22.101959"
           sodipodi:cy="112.49392"
           sodipodi:cx="-62.516972"
           id="path2753"
           style="fill:#0000ff"
           sodipodi:type="arc" />
      </g>
      <path
         transform="matrix(0.8559838,0,0,0.8559838,44.516,-98.65906)"
         d="M -185.65646,177.53683 A 23.364929,23.364929 0 1 1 -232.38632,177.53683 A 23.364929,23.364929 0 1 1 -185.65646,177.53683 z"
         sodipodi:ry="23.364929"
         sodipodi:rx="23.364929"
         sodipodi:cy="177.53683"
         sodipodi:cx="-209.02139"
         id="path2755"
         style="fill:#00ff00"
         sodipodi:type="arc" />
      <path
         sodipodi:type="arc"
         style="fill:#ff00ff"
         id="path2757"
         sodipodi:cx="-209.02139"
         sodipodi:cy="177.53683"
         sodipodi:rx="23.364929"
         sodipodi:ry="23.364929"
         d="M -185.65646,177.53683 A 23.364929,23.364929 0 1 1 -232.38632,177.53683 A 23.364929,23.364929 0 1 1 -185.65646,177.53683 z"
         transform="matrix(0.8559838,0,0,0.8559838,147.44978,-98.65906)" />
      <path
         transform="matrix(0.8559838,0,0,0.8559838,62.516,-10.25121)"
         d="M -185.65646,177.53683 A 23.364929,23.364929 0 1 1 -232.38632,177.53683 A 23.364929,23.364929 0 1 1 -185.65646,177.53683 z"
         sodipodi:ry="23.364929"
         sodipodi:rx="23.364929"
         sodipodi:cy="177.53683"
         sodipodi:cx="-209.02139"
         id="path2759"
         style="fill:#ff00ff"
         sodipodi:type="arc" />
      <path
         transform="matrix(0.8559838,0,0,0.8559838,129.44978,-10.25121)"
         d="M -185.65646,177.53683 A 23.364929,23.364929 0 1 1 -232.38632,177.53683 A 23.364929,23.364929 0 1 1 -185.65646,177.53683 z"
         sodipodi:ry="23.364929"
         sodipodi:rx="23.364929"
         sodipodi:cy="177.53683"
         sodipodi:cx="-209.02139"
         id="path2761"
         style="fill:#00ff00"
         sodipodi:type="arc" />
    </g>
    <g
       transform="translate(779.25194,402.88715)"
       id="g2763">
      <g
         id="g2765"
         transform="translate(166.71192,-227.79217)">
        <path
           style="fill:#000000"
           d="M -311.05421,254.50961 C -327.45553,270.4966 -337.64795,292.81411 -337.64795,317.50961 C -337.64795,366.08561 -298.22395,405.50962 -249.64796,405.50961 C -201.07196,405.50961 -161.64796,366.08561 -161.64796,317.50961 C -161.64796,292.8184 -171.8454,270.49602 -188.24171,254.50961 L -311.05421,254.50961 z"
           id="path2767" />
        <path
           sodipodi:type="arc"
           style="fill:#0000ff"
           id="path2769"
           sodipodi:cx="-62.516972"
           sodipodi:cy="112.49392"
           sodipodi:rx="22.101959"
           sodipodi:ry="23.996412"
           d="M -40.415012,112.49392 A 22.101959,23.996412 0 1 1 -84.618931,112.49392 A 22.101959,23.996412 0 1 1 -40.415012,112.49392 z"
           transform="matrix(1.1311214,0,0,1.0418224,-178.93367,200.31093)" />
      </g>
      <path
         sodipodi:type="arc"
         style="fill:#ff00ff"
         id="path2771"
         sodipodi:cx="-209.02139"
         sodipodi:cy="177.53683"
         sodipodi:rx="23.364929"
         sodipodi:ry="23.364929"
         d="M -185.65646,177.53683 A 23.364929,23.364929 0 1 1 -232.38632,177.53683 A 23.364929,23.364929 0 1 1 -185.65646,177.53683 z"
         transform="matrix(0.8559838,0,0,0.8559838,44.516,-98.65906)" />
      <path
         transform="matrix(0.8559838,0,0,0.8559838,147.44978,-98.65906)"
         d="M -185.65646,177.53683 A 23.364929,23.364929 0 1 1 -232.38632,177.53683 A 23.364929,23.364929 0 1 1 -185.65646,177.53683 z"
         sodipodi:ry="23.364929"
         sodipodi:rx="23.364929"
         sodipodi:cy="177.53683"
         sodipodi:cx="-209.02139"
         id="path2773"
         style="fill:#ff00ff"
         sodipodi:type="arc" />
      <path
         sodipodi:type="arc"
         style="fill:#ff00ff"
         id="path2775"
         sodipodi:cx="-209.02139"
         sodipodi:cy="177.53683"
         sodipodi:rx="23.364929"
         sodipodi:ry="23.364929"
         d="M -185.65646,177.53683 A 23.364929,23.364929 0 1 1 -232.38632,177.53683 A 23.364929,23.364929 0 1 1 -185.65646,177.53683 z"
         transform="matrix(0.8559838,0,0,0.8559838,62.516,-10.25121)" />
      <path
         sodipodi:type="arc"
         style="fill:#ff00ff"
         id="path2777"
         sodipodi:cx="-209.02139"
         sodipodi:cy="177.53683"
         sodipodi:rx="23.364929"
         sodipodi:ry="23.364929"
         d="M -185.65646,177.53683 A 23.364929,23.364929 0 1 1 -232.38632,177.53683 A 23.364929,23.364929 0 1 1 -185.65646,177.53683 z"
         transform="matrix(0.8559838,0,0,0.8559838,129.44978,-10.25121)" />
    </g>
  </g>
</svg>
