<?xml version="1.0" encoding="UTF-8" standalone="no"?>
<!-- Created with Inkscape (http://www.inkscape.org/) -->
<svg
   xmlns:dc="http://purl.org/dc/elements/1.1/"
   xmlns:cc="http://creativecommons.org/ns#"
   xmlns:rdf="http://www.w3.org/1999/02/22-rdf-syntax-ns#"
   xmlns:svg="http://www.w3.org/2000/svg"
   xmlns="http://www.w3.org/2000/svg"
   xmlns:sodipodi="http://sodipodi.sourceforge.net/DTD/sodipodi-0.dtd"
   xmlns:inkscape="http://www.inkscape.org/namespaces/inkscape"
   width="800"
   height="600"
   id="svg2"
   sodipodi:version="0.32"
   inkscape:version="0.46"
   version="1.0"
   sodipodi:docname="kiks.svg"
   inkscape:output_extension="org.inkscape.output.svg.inkscape">
  <defs
     id="defs4">
    <inkscape:perspective
       sodipodi:type="inkscape:persp3d"
       inkscape:vp_x="0 : 526.18109 : 1"
       inkscape:vp_y="6.1230318e-14 : 1000 : 0"
       inkscape:vp_z="744.09448 : 526.18109 : 1"
       inkscape:persp3d-origin="372.04724 : 350.78739 : 1"
       id="perspective10" />
    <inkscape:perspective
       id="perspective3292"
       inkscape:persp3d-origin="372.04724 : 350.78739 : 1"
       inkscape:vp_z="744.09448 : 526.18109 : 1"
       inkscape:vp_y="0 : 1000 : 0"
       inkscape:vp_x="0 : 526.18109 : 1"
       sodipodi:type="inkscape:persp3d" />
  </defs>
  <sodipodi:namedview
     id="base"
     pagecolor="#000000"
     bordercolor="#666666"
     borderopacity="1.0"
     gridtolerance="10000"
     guidetolerance="10"
     objecttolerance="10"
     inkscape:pageopacity="0"
     inkscape:pageshadow="2"
     inkscape:zoom="0.791785"
     inkscape:cx="315.51754"
     inkscape:cy="494.16228"
     inkscape:document-units="px"
     inkscape:current-layer="layer1"
     showgrid="false"
     inkscape:window-width="1400"
     inkscape:window-height="986"
     inkscape:window-x="0"
     inkscape:window-y="0" />
  <metadata
     id="metadata7">
    <rdf:RDF>
      <cc:Work
         rdf:about="">
        <dc:format>image/svg+xml</dc:format>
        <dc:type
           rdf:resource="http://purl.org/dc/dcmitype/StillImage" />
      </cc:Work>
    </rdf:RDF>
  </metadata>
  <g
     inkscape:label="Layer 1"
     inkscape:groupmode="layer"
     id="layer1">
    <rect
       y="9.0820308e-08"
       x="5.682373e-08"
       height="600"
       width="800"
       id="use2405"
       style="fill:#008000;fill-opacity:1;stroke:none;stroke-width:1;stroke-miterlimit:4;stroke-dasharray:none;stroke-opacity:1"
       sodipodi:insensitive="true" />
    <g
       id="g3320"
       sodipodi:insensitive="true">
      <rect
         y="400.49997"
         x="0.50000006"
         height="199.00002"
         width="199.00002"
         id="rect3195"
         style="fill:none;fill-opacity:1;stroke:#000000;stroke-width:1.00000012;stroke-miterlimit:4;stroke-dasharray:none;stroke-opacity:1" />
      <rect
         style="fill:none;fill-opacity:1;stroke:#000000;stroke-width:1.00000012;stroke-miterlimit:4;stroke-dasharray:none;stroke-opacity:1"
         id="rect3197"
         width="199.00002"
         height="199.00002"
         x="200.5"
         y="400.49997" />
      <rect
         y="400.49997"
         x="400.5"
         height="199.00002"
         width="199.00002"
         id="rect3199"
         style="fill:none;fill-opacity:1;stroke:#000000;stroke-width:1.00000012;stroke-miterlimit:4;stroke-dasharray:none;stroke-opacity:1" />
      <rect
         style="fill:none;fill-opacity:1;stroke:#000000;stroke-width:1.00000012;stroke-miterlimit:4;stroke-dasharray:none;stroke-opacity:1"
         id="rect3201"
         width="199.00002"
         height="199.00002"
         x="600.5"
         y="400.49997" />
      <rect
         style="fill:none;fill-opacity:1;stroke:#000000;stroke-width:1.00000012;stroke-miterlimit:4;stroke-dasharray:none;stroke-opacity:1"
         id="rect3203"
         width="199.00002"
         height="199.00002"
         x="0.50000006"
         y="200.49998" />
      <rect
         y="200.49998"
         x="200.5"
         height="199.00002"
         width="199.00002"
         id="rect3205"
         style="fill:none;fill-opacity:1;stroke:#000000;stroke-width:1.00000012;stroke-miterlimit:4;stroke-dasharray:none;stroke-opacity:1" />
      <rect
         style="fill:none;fill-opacity:1;stroke:#000000;stroke-width:1.00000012;stroke-miterlimit:4;stroke-dasharray:none;stroke-opacity:1"
         id="rect3207"
         width="199.00002"
         height="199.00002"
         x="400.5"
         y="200.49998" />
      <rect
         y="200.49998"
         x="600.5"
         height="199.00002"
         width="199.00002"
         id="rect3209"
         style="fill:none;fill-opacity:1;stroke:#000000;stroke-width:1.00000012;stroke-miterlimit:4;stroke-dasharray:none;stroke-opacity:1" />
      <rect
         y="0.49998468"
         x="0.50000006"
         height="199.00002"
         width="199.00002"
         id="rect3211"
         style="fill:none;fill-opacity:1;stroke:#000000;stroke-width:1.00000012;stroke-miterlimit:4;stroke-dasharray:none;stroke-opacity:1" />
      <rect
         style="fill:none;fill-opacity:1;stroke:#000000;stroke-width:1.00000012;stroke-miterlimit:4;stroke-dasharray:none;stroke-opacity:1"
         id="rect3213"
         width="199.00002"
         height="199.00002"
         x="200.5"
         y="0.49998468" />
      <rect
         y="0.49998468"
         x="400.5"
         height="199.00002"
         width="199.00002"
         id="rect3215"
         style="fill:none;fill-opacity:1;stroke:#000000;stroke-width:1.00000012;stroke-miterlimit:4;stroke-dasharray:none;stroke-opacity:1" />
      <rect
         style="fill:none;fill-opacity:1;stroke:#000000;stroke-width:1.00000012;stroke-miterlimit:4;stroke-dasharray:none;stroke-opacity:1"
         id="rect3217"
         width="199.00002"
         height="199.00002"
         x="600.5"
         y="0.49998468" />
    </g>
    <rect
       style="fill:#ffff00;fill-opacity:1;stroke:none;stroke-width:1;stroke-miterlimit:4;stroke-dasharray:none;stroke-opacity:1"
       id="rect3176"
       width="1"
       height="140"
       x="198"
       y="59" />
    <rect
       y="59"
       x="398"
       height="140"
       width="1"
       id="rect3335"
       style="fill:#ffff00;fill-opacity:1;stroke:none;stroke-width:1;stroke-miterlimit:4;stroke-dasharray:none;stroke-opacity:1" />
    <rect
       style="fill:#ffff00;fill-opacity:1;stroke:none;stroke-width:1;stroke-miterlimit:4;stroke-dasharray:none;stroke-opacity:1"
       id="rect3337"
       width="1"
       height="140"
       x="598"
       y="59" />
    <rect
       y="59"
       x="798"
       height="140"
       width="1"
       id="rect3339"
       style="fill:#ffff00;fill-opacity:1;stroke:none;stroke-width:1;stroke-miterlimit:4;stroke-dasharray:none;stroke-opacity:1" />
    <rect
       y="259"
       x="198"
       height="140"
       width="1"
       id="rect3343"
       style="fill:#ffff00;fill-opacity:1;stroke:none;stroke-width:1;stroke-miterlimit:4;stroke-dasharray:none;stroke-opacity:1" />
    <rect
       style="fill:#ffff00;fill-opacity:1;stroke:none;stroke-width:1;stroke-miterlimit:4;stroke-dasharray:none;stroke-opacity:1"
       id="rect3345"
       width="1"
       height="140"
       x="398"
       y="259" />
    <rect
       y="259"
       x="598"
       height="140"
       width="1"
       id="rect3347"
       style="fill:#ffff00;fill-opacity:1;stroke:none;stroke-width:1;stroke-miterlimit:4;stroke-dasharray:none;stroke-opacity:1" />
    <rect
       style="fill:#ffff00;fill-opacity:1;stroke:none;stroke-width:1;stroke-miterlimit:4;stroke-dasharray:none;stroke-opacity:1"
       id="rect3349"
       width="1"
       height="140"
       x="798"
       y="259" />
    <rect
       style="fill:#ffff00;fill-opacity:1;stroke:none;stroke-width:1;stroke-miterlimit:4;stroke-dasharray:none;stroke-opacity:1"
       id="rect3351"
       width="1"
       height="140"
       x="198"
       y="459" />
    <rect
       y="459"
       x="398"
       height="140"
       width="1"
       id="rect3353"
       style="fill:#ffff00;fill-opacity:1;stroke:none;stroke-width:1;stroke-miterlimit:4;stroke-dasharray:none;stroke-opacity:1" />
    <rect
       style="fill:#ffff00;fill-opacity:1;stroke:none;stroke-width:1;stroke-miterlimit:4;stroke-dasharray:none;stroke-opacity:1"
       id="rect3355"
       width="1"
       height="140"
       x="598"
       y="459" />
    <rect
       y="459"
       x="798"
       height="140"
       width="1"
       id="rect3357"
       style="fill:#ffff00;fill-opacity:1;stroke:none;stroke-width:1;stroke-miterlimit:4;stroke-dasharray:none;stroke-opacity:1" />
    <path
       id="path4766"
       d="M 64.18484,19.814259 C 31.60396,33.35578 8.68484,65.506668 8.68484,102.97051 C 8.68484,152.65051 49.00484,192.97051 98.68484,192.97051 C 148.36484,192.97051 188.68484,152.65051 188.68484,102.97051 C 188.68484,65.506666 165.76572,33.355779 133.18484,19.814259 L 64.18484,19.814259 z"
       style="fill:#000000;fill-opacity:1;stroke:none;stroke-width:1;stroke-miterlimit:4;stroke-dasharray:none;stroke-opacity:1" />
    <path
       id="rect4723"
       d="M 33.6875,40 C 18.401622,56.493224 9,78.74895 9,103.24325 C 9.000001,129.51519 19.795481,153.23255 37.09375,170 L 98.999995,106.75675 L 33.6875,40 z"
       style="fill:#00ff00;fill-opacity:1;stroke:none;stroke-width:1;stroke-miterlimit:4;stroke-dasharray:none;stroke-opacity:1" />
    <path
       id="rect4725"
       d="M 63.136843,19.81426 C 51.273286,24.693722 40.701395,32.005644 32,41.09551 L 98.000003,106.40801 L 164,41.09551 C 155.2986,32.005644 144.72671,24.693722 132.86315,19.81426 L 63.136843,19.81426 z"
       style="fill:#000000;fill-opacity:1;stroke:none;stroke-width:1;stroke-miterlimit:4;stroke-dasharray:none;stroke-opacity:1" />
    <path
       id="rect4731"
       d="M 99.000011,106.40801 L 36,168.28301 C 52.421025,183.58541 74.599953,192.97051 99.000011,192.97051 C 123.40006,192.97051 145.579,183.58541 162,168.28301 L 99.000011,106.40801 z"
       style="fill:#00ff00;fill-opacity:1;stroke:none;stroke-width:1;stroke-miterlimit:4;stroke-dasharray:none;stroke-opacity:1" />
    <path
       id="rect4733"
       d="M 163.3125,40 L 98,106.75676 L 159.90625,170 C 177.20452,153.23255 188,129.51519 188,103.24324 C 188,78.74895 178.59839,56.493224 163.3125,40 z"
       style="fill:#ffffff;fill-opacity:1;stroke:none;stroke-width:1;stroke-miterlimit:4;stroke-dasharray:none;stroke-opacity:1" />
    <path
       d="M 80.374863,65.283905 A 15.405182,14.958655 0 1 1 49.564499,65.283905 A 15.405182,14.958655 0 1 1 80.374863,65.283905 z"
       sodipodi:ry="14.958655"
       sodipodi:rx="15.405182"
       sodipodi:cy="65.283905"
       sodipodi:cx="64.969681"
       id="path4770"
       style="fill:#0000ff;fill-opacity:1;stroke:none;stroke-width:1;stroke-miterlimit:4;stroke-dasharray:none;stroke-opacity:1"
       sodipodi:type="arc"
       transform="matrix(1.6228306,0,0,1.6712732,-7.73341,-2.744227)" />
    <path
       style="fill:#000000;fill-opacity:1;stroke:none;stroke-width:1;stroke-miterlimit:4;stroke-dasharray:none;stroke-opacity:1"
       d="M 263.73396,19.814259 C 231.15308,33.35578 208.23396,65.506668 208.23396,102.97051 C 208.23396,152.65051 248.55396,192.97051 298.23396,192.97051 C 347.91396,192.97051 388.23396,152.65051 388.23396,102.97051 C 388.23396,65.506666 365.31484,33.355779 332.73396,19.814259 L 263.73396,19.814259 z"
       id="path4835" />
    <path
       style="fill:#00ff00;fill-opacity:1;stroke:none;stroke-width:1;stroke-miterlimit:4;stroke-dasharray:none;stroke-opacity:1"
       d="M 233.23662,40 C 217.95074,56.493224 208.54912,78.74895 208.54912,103.24325 C 208.54912,129.51519 219.3446,153.23255 236.64287,170 L 298.54912,106.75675 L 233.23662,40 z"
       id="path4837" />
    <path
       style="fill:#000000;fill-opacity:1;stroke:none;stroke-width:1;stroke-miterlimit:4;stroke-dasharray:none;stroke-opacity:1"
       d="M 262.68596,19.81426 C 250.82241,24.693722 240.25052,32.005644 231.54912,41.09551 L 297.54912,106.40801 L 363.54912,41.09551 C 354.84772,32.005644 344.27583,24.693722 332.41227,19.81426 L 262.68596,19.81426 z"
       id="path4839" />
    <path
       style="fill:#ffffff;fill-opacity:1;stroke:none;stroke-width:1;stroke-miterlimit:4;stroke-dasharray:none;stroke-opacity:1"
       d="M 298.54913,106.40801 L 235.54912,168.28301 C 251.97015,183.58541 274.14907,192.97051 298.54913,192.97051 C 322.94918,192.97051 345.12812,183.58541 361.54912,168.28301 L 298.54913,106.40801 z"
       id="path4841" />
    <path
       style="fill:#ffffff;fill-opacity:1;stroke:none;stroke-width:1;stroke-miterlimit:4;stroke-dasharray:none;stroke-opacity:1"
       d="M 362.86162,40 L 297.54912,106.75676 L 359.45537,170 C 376.75364,153.23255 387.54912,129.51519 387.54912,103.24324 C 387.54912,78.74895 378.14751,56.493224 362.86162,40 z"
       id="path4843" />
    <path
       transform="matrix(1.6228306,0,0,1.6712732,191.81571,-2.744227)"
       sodipodi:type="arc"
       style="fill:#0000ff;fill-opacity:1;stroke:none;stroke-width:1;stroke-miterlimit:4;stroke-dasharray:none;stroke-opacity:1"
       id="path4845"
       sodipodi:cx="64.969681"
       sodipodi:cy="65.283905"
       sodipodi:rx="15.405182"
       sodipodi:ry="14.958655"
       d="M 80.374863,65.283905 A 15.405182,14.958655 0 1 1 49.564499,65.283905 A 15.405182,14.958655 0 1 1 80.374863,65.283905 z" />
    <path
       id="path4849"
       d="M 468.33496,18.55129 C 435.75408,32.092811 412.83496,64.243699 412.83496,101.70754 C 412.83496,151.38754 453.15496,191.70754 502.83496,191.70754 C 552.51496,191.70754 592.83496,151.38754 592.83496,101.70754 C 592.83496,64.243697 569.91584,32.09281 537.33496,18.55129 L 468.33496,18.55129 z"
       style="fill:#000000;fill-opacity:1;stroke:none;stroke-width:1;stroke-miterlimit:4;stroke-dasharray:none;stroke-opacity:1" />
    <path
       id="path4851"
       d="M 437.83762,38.737031 C 422.55174,55.230255 413.15012,77.485981 413.15012,101.98028 C 413.15012,128.25222 423.9456,151.96958 441.24387,168.73703 L 503.15012,105.49378 L 437.83762,38.737031 z"
       style="fill:#ffffff;fill-opacity:1;stroke:none;stroke-width:1;stroke-miterlimit:4;stroke-dasharray:none;stroke-opacity:1" />
    <path
       id="path4853"
       d="M 467.28696,18.551291 C 455.42341,23.430753 444.85152,30.742675 436.15012,39.832541 L 502.15012,105.14504 L 568.15012,39.832541 C 559.44872,30.742675 548.87683,23.430753 537.01327,18.551291 L 467.28696,18.551291 z"
       style="fill:#000000;fill-opacity:1;stroke:none;stroke-width:1;stroke-miterlimit:4;stroke-dasharray:none;stroke-opacity:1" />
    <path
       id="path4855"
       d="M 503.15013,105.14504 L 440.15012,167.02004 C 456.57115,182.32244 478.75007,191.70754 503.15013,191.70754 C 527.55018,191.70754 549.72912,182.32244 566.15012,167.02004 L 503.15013,105.14504 z"
       style="fill:#00ff00;fill-opacity:1;stroke:none;stroke-width:1;stroke-miterlimit:4;stroke-dasharray:none;stroke-opacity:1" />
    <path
       id="path4857"
       d="M 567.46262,38.737031 L 502.15012,105.49379 L 564.05637,168.73703 C 581.35464,151.96958 592.15012,128.25222 592.15012,101.98027 C 592.15012,77.485981 582.74851,55.230255 567.46262,38.737031 z"
       style="fill:#00ff00;fill-opacity:1;stroke:none;stroke-width:1;stroke-miterlimit:4;stroke-dasharray:none;stroke-opacity:1" />
    <path
       d="M 80.374863,65.283905 A 15.405182,14.958655 0 1 1 49.564499,65.283905 A 15.405182,14.958655 0 1 1 80.374863,65.283905 z"
       sodipodi:ry="14.958655"
       sodipodi:rx="15.405182"
       sodipodi:cy="65.283905"
       sodipodi:cx="64.969681"
       id="path4859"
       style="fill:#0000ff;fill-opacity:1;stroke:none;stroke-width:1;stroke-miterlimit:4;stroke-dasharray:none;stroke-opacity:1"
       sodipodi:type="arc"
       transform="matrix(1.6228306,0,0,1.6712732,396.41671,-4.0071962)" />
    <path
       style="fill:#000000;fill-opacity:1;stroke:none;stroke-width:1;stroke-miterlimit:4;stroke-dasharray:none;stroke-opacity:1"
       d="M 669.14705,16.025352 C 636.56617,29.566873 613.64705,61.717761 613.64705,99.181603 C 613.64705,148.8616 653.96705,189.1816 703.64705,189.1816 C 753.32705,189.1816 793.64705,148.8616 793.64705,99.181603 C 793.64705,61.717759 770.72793,29.566872 738.14705,16.025352 L 669.14705,16.025352 z"
       id="path4863" />
    <path
       style="fill:#00ff00;fill-opacity:1;stroke:none;stroke-width:1;stroke-miterlimit:4;stroke-dasharray:none;stroke-opacity:1"
       d="M 638.64971,36.211093 C 623.36383,52.704317 613.96221,74.960043 613.96221,99.454343 C 613.96221,125.72628 624.75769,149.44364 642.05596,166.21109 L 703.96221,102.96784 L 638.64971,36.211093 z"
       id="path4865" />
    <path
       style="fill:#000000;fill-opacity:1;stroke:none;stroke-width:1;stroke-miterlimit:4;stroke-dasharray:none;stroke-opacity:1"
       d="M 668.09905,16.025353 C 656.2355,20.904815 645.66361,28.216737 636.96221,37.306603 L 702.96221,102.6191 L 768.96221,37.306603 C 760.26081,28.216737 749.68892,20.904815 737.82536,16.025353 L 668.09905,16.025353 z"
       id="path4867" />
    <path
       style="fill:#ffffff;fill-opacity:1;stroke:none;stroke-width:1;stroke-miterlimit:4;stroke-dasharray:none;stroke-opacity:1"
       d="M 703.96222,102.6191 L 640.96221,164.4941 C 657.38324,179.7965 679.56216,189.1816 703.96222,189.1816 C 728.36227,189.1816 750.54121,179.7965 766.96221,164.4941 L 703.96222,102.6191 z"
       id="path4869" />
    <path
       style="fill:#00ff00;fill-opacity:1;stroke:none;stroke-width:1;stroke-miterlimit:4;stroke-dasharray:none;stroke-opacity:1"
       d="M 768.27471,36.211093 L 702.96221,102.96785 L 764.86846,166.21109 C 782.16673,149.44364 792.96221,125.72628 792.96221,99.454333 C 792.96221,74.960043 783.5606,52.704317 768.27471,36.211093 z"
       id="path4871" />
    <path
       transform="matrix(1.6228306,0,0,1.6712732,597.2288,-6.5331344)"
       sodipodi:type="arc"
       style="fill:#0000ff;fill-opacity:1;stroke:none;stroke-width:1;stroke-miterlimit:4;stroke-dasharray:none;stroke-opacity:1"
       id="path4873"
       sodipodi:cx="64.969681"
       sodipodi:cy="65.283905"
       sodipodi:rx="15.405182"
       sodipodi:ry="14.958655"
       d="M 80.374863,65.283905 A 15.405182,14.958655 0 1 1 49.564499,65.283905 A 15.405182,14.958655 0 1 1 80.374863,65.283905 z" />
    <path
       id="path4877"
       d="M 62.921876,215.57447 C 30.340996,229.11599 7.4218762,261.26688 7.4218762,298.73072 C 7.4218762,348.41072 47.741876,388.73072 97.421876,388.73072 C 147.10188,388.73072 187.42188,348.41072 187.42188,298.73072 C 187.42188,261.26688 164.50276,229.11599 131.92188,215.57447 L 62.921876,215.57447 z"
       style="fill:#000000;fill-opacity:1;stroke:none;stroke-width:1;stroke-miterlimit:4;stroke-dasharray:none;stroke-opacity:1" />
    <path
       id="path4879"
       d="M 32.424536,235.76021 C 17.138658,252.25343 7.7370362,274.50916 7.7370362,299.00346 C 7.7370372,325.2754 18.532517,348.99276 35.830786,365.76021 L 97.737031,302.51696 L 32.424536,235.76021 z"
       style="fill:#f9f9f9;fill-opacity:1;stroke:none;stroke-width:1;stroke-miterlimit:4;stroke-dasharray:none;stroke-opacity:1" />
    <path
       id="path4881"
       d="M 61.873879,215.57447 C 50.010322,220.45393 39.438431,227.76585 30.737036,236.85572 L 96.737039,302.16822 L 162.73704,236.85572 C 154.03564,227.76585 143.46375,220.45393 131.60019,215.57447 L 61.873879,215.57447 z"
       style="fill:#000000;fill-opacity:1;stroke:none;stroke-width:1;stroke-miterlimit:4;stroke-dasharray:none;stroke-opacity:1" />
    <path
       id="path4883"
       d="M 97.737047,302.16822 L 34.737036,364.04322 C 51.158061,379.34562 73.336989,388.73072 97.737047,388.73072 C 122.1371,388.73072 144.31604,379.34562 160.73704,364.04322 L 97.737047,302.16822 z"
       style="fill:#ffffff;fill-opacity:1;stroke:none;stroke-width:1;stroke-miterlimit:4;stroke-dasharray:none;stroke-opacity:1" />
    <path
       id="path4885"
       d="M 162.04954,235.76021 L 96.737036,302.51697 L 158.64329,365.76021 C 175.94156,348.99276 186.73704,325.2754 186.73704,299.00345 C 186.73704,274.50916 177.33543,252.25343 162.04954,235.76021 z"
       style="fill:#00ff00;fill-opacity:1;stroke:none;stroke-width:1;stroke-miterlimit:4;stroke-dasharray:none;stroke-opacity:1" />
    <path
       d="M 80.374863,65.283905 A 15.405182,14.958655 0 1 1 49.564499,65.283905 A 15.405182,14.958655 0 1 1 80.374863,65.283905 z"
       sodipodi:ry="14.958655"
       sodipodi:rx="15.405182"
       sodipodi:cy="65.283905"
       sodipodi:cx="64.969681"
       id="path4887"
       style="fill:#0000ff;fill-opacity:1;stroke:none;stroke-width:1;stroke-miterlimit:4;stroke-dasharray:none;stroke-opacity:1"
       sodipodi:type="arc"
       transform="matrix(1.6228306,0,0,1.6712732,-8.9963738,193.01598)" />
    <path
       style="fill:#000000;fill-opacity:1;stroke:none;stroke-width:1;stroke-miterlimit:4;stroke-dasharray:none;stroke-opacity:1"
       d="M 263.73397,219.36338 C 231.15309,232.9049 208.23397,265.05579 208.23397,302.51963 C 208.23397,352.19963 248.55397,392.51963 298.23397,392.51963 C 347.91397,392.51963 388.23397,352.19963 388.23397,302.51963 C 388.23397,265.05579 365.31485,232.9049 332.73397,219.36338 L 263.73397,219.36338 z"
       id="path4891" />
    <path
       style="fill:#ffffff;fill-opacity:1;stroke:none;stroke-width:1;stroke-miterlimit:4;stroke-dasharray:none;stroke-opacity:1"
       d="M 233.23663,239.54912 C 217.95075,256.04234 208.54913,278.29807 208.54913,302.79237 C 208.54913,329.06431 219.34461,352.78167 236.64288,369.54912 L 298.54913,306.30587 L 233.23663,239.54912 z"
       id="path4893" />
    <path
       style="fill:#000000;fill-opacity:1;stroke:none;stroke-width:1;stroke-miterlimit:4;stroke-dasharray:none;stroke-opacity:1"
       d="M 262.68597,219.36338 C 250.82242,224.24284 240.25052,231.55476 231.54913,240.64463 L 297.54913,305.95713 L 363.54913,240.64463 C 354.84773,231.55476 344.27584,224.24284 332.41228,219.36338 L 262.68597,219.36338 z"
       id="path4895" />
    <path
       style="fill:#00ff00;fill-opacity:1;stroke:none;stroke-width:1;stroke-miterlimit:4;stroke-dasharray:none;stroke-opacity:1"
       d="M 298.54914,305.95713 L 235.54913,367.83213 C 251.97015,383.13453 274.14908,392.51963 298.54914,392.51963 C 322.94919,392.51963 345.12813,383.13453 361.54913,367.83213 L 298.54914,305.95713 z"
       id="path4897" />
    <path
       style="fill:#ffffff;fill-opacity:1;stroke:none;stroke-width:1;stroke-miterlimit:4;stroke-dasharray:none;stroke-opacity:1"
       d="M 362.86163,239.54912 L 297.54913,306.30588 L 359.45538,369.54912 C 376.75365,352.78167 387.54913,329.06431 387.54913,302.79236 C 387.54913,278.29807 378.14752,256.04234 362.86163,239.54912 z"
       id="path4899" />
    <path
       transform="matrix(1.6228306,0,0,1.6712732,191.81572,196.80489)"
       sodipodi:type="arc"
       style="fill:#0000ff;fill-opacity:1;stroke:none;stroke-width:1;stroke-miterlimit:4;stroke-dasharray:none;stroke-opacity:1"
       id="path4901"
       sodipodi:cx="64.969681"
       sodipodi:cy="65.283905"
       sodipodi:rx="15.405182"
       sodipodi:ry="14.958655"
       d="M 80.374863,65.283905 A 15.405182,14.958655 0 1 1 49.564499,65.283905 A 15.405182,14.958655 0 1 1 80.374863,65.283905 z" />
    <path
       id="path4905"
       d="M 465.80903,216.83744 C 433.22815,230.37896 410.30903,262.52985 410.30903,299.99369 C 410.30903,349.67369 450.62903,389.99369 500.30903,389.99369 C 549.98903,389.99369 590.30903,349.67369 590.30903,299.99369 C 590.30903,262.52985 567.38991,230.37896 534.80903,216.83744 L 465.80903,216.83744 z"
       style="fill:#000000;fill-opacity:1;stroke:none;stroke-width:1;stroke-miterlimit:4;stroke-dasharray:none;stroke-opacity:1" />
    <path
       id="path4907"
       d="M 435.31169,237.02318 C 420.02581,253.5164 410.62419,275.77213 410.62419,300.26643 C 410.62419,326.53837 421.41967,350.25573 438.71794,367.02318 L 500.62419,303.77993 L 435.31169,237.02318 z"
       style="fill:#00ff00;fill-opacity:1;stroke:none;stroke-width:1;stroke-miterlimit:4;stroke-dasharray:none;stroke-opacity:1" />
    <path
       id="path4909"
       d="M 464.76103,216.83744 C 452.89748,221.7169 442.32558,229.02882 433.62419,238.11869 L 499.62419,303.43119 L 565.62419,238.11869 C 556.92279,229.02882 546.3509,221.7169 534.48734,216.83744 L 464.76103,216.83744 z"
       style="fill:#000000;fill-opacity:1;stroke:none;stroke-width:1;stroke-miterlimit:4;stroke-dasharray:none;stroke-opacity:1" />
    <path
       id="path4911"
       d="M 500.6242,303.43119 L 437.62419,365.30619 C 454.04521,380.60859 476.22414,389.99369 500.6242,389.99369 C 525.02425,389.99369 547.20319,380.60859 563.62419,365.30619 L 500.6242,303.43119 z"
       style="fill:#00ff00;fill-opacity:1;stroke:none;stroke-width:1;stroke-miterlimit:4;stroke-dasharray:none;stroke-opacity:1" />
    <path
       id="path4913"
       d="M 564.93669,237.02318 L 499.62419,303.77994 L 561.53044,367.02318 C 578.82871,350.25573 589.62419,326.53837 589.62419,300.26642 C 589.62419,275.77213 580.22258,253.5164 564.93669,237.02318 z"
       style="fill:#00ff00;fill-opacity:1;stroke:none;stroke-width:1;stroke-miterlimit:4;stroke-dasharray:none;stroke-opacity:1" />
    <path
       d="M 80.374863,65.283905 A 15.405182,14.958655 0 1 1 49.564499,65.283905 A 15.405182,14.958655 0 1 1 80.374863,65.283905 z"
       sodipodi:ry="14.958655"
       sodipodi:rx="15.405182"
       sodipodi:cy="65.283905"
       sodipodi:cx="64.969681"
       id="path4915"
       style="fill:#0000ff;fill-opacity:1;stroke:none;stroke-width:1;stroke-miterlimit:4;stroke-dasharray:none;stroke-opacity:1"
       sodipodi:type="arc"
       transform="matrix(1.6228306,0,0,1.6712732,393.89078,194.27895)" />
    <path
       style="fill:#000000;fill-opacity:1;stroke:none;stroke-width:1;stroke-miterlimit:4;stroke-dasharray:none;stroke-opacity:1"
       d="M 666.62112,218.10041 C 634.04024,231.64193 611.12112,263.79282 611.12112,301.25666 C 611.12112,350.93666 651.44112,391.25666 701.12112,391.25666 C 750.80112,391.25666 791.12112,350.93666 791.12112,301.25666 C 791.12112,263.79282 768.202,231.64193 735.62112,218.10041 L 666.62112,218.10041 z"
       id="path4919" />
    <path
       style="fill:#ffffff;fill-opacity:1;stroke:none;stroke-width:1;stroke-miterlimit:4;stroke-dasharray:none;stroke-opacity:1"
       d="M 636.12378,238.28615 C 620.8379,254.77937 611.43628,277.0351 611.43628,301.5294 C 611.43628,327.80134 622.23176,351.5187 639.53003,368.28615 L 701.43628,305.0429 L 636.12378,238.28615 z"
       id="path4921" />
    <path
       style="fill:#000000;fill-opacity:1;stroke:none;stroke-width:1;stroke-miterlimit:4;stroke-dasharray:none;stroke-opacity:1"
       d="M 665.57312,218.10041 C 653.70957,222.97987 643.13768,230.29179 634.43628,239.38166 L 700.43628,304.69416 L 766.43628,239.38166 C 757.73488,230.29179 747.16299,222.97987 735.29943,218.10041 L 665.57312,218.10041 z"
       id="path4923" />
    <path
       style="fill:#ffffff;fill-opacity:1;stroke:none;stroke-width:1;stroke-miterlimit:4;stroke-dasharray:none;stroke-opacity:1"
       d="M 701.43629,304.69416 L 638.43628,366.56916 C 654.8573,381.87156 677.03623,391.25666 701.43629,391.25666 C 725.83634,391.25666 748.01528,381.87156 764.43628,366.56916 L 701.43629,304.69416 z"
       id="path4925" />
    <path
       style="fill:#ffffff;fill-opacity:1;stroke:none;stroke-width:1;stroke-miterlimit:4;stroke-dasharray:none;stroke-opacity:1"
       d="M 765.74878,238.28615 L 700.43628,305.04291 L 762.34253,368.28615 C 779.6408,351.5187 790.43628,327.80134 790.43628,301.52939 C 790.43628,277.0351 781.03467,254.77937 765.74878,238.28615 z"
       id="path4927" />
    <path
       transform="matrix(1.6228306,0,0,1.6712732,594.70287,195.54192)"
       sodipodi:type="arc"
       style="fill:#0000ff;fill-opacity:1;stroke:none;stroke-width:1;stroke-miterlimit:4;stroke-dasharray:none;stroke-opacity:1"
       id="path4929"
       sodipodi:cx="64.969681"
       sodipodi:cy="65.283905"
       sodipodi:rx="15.405182"
       sodipodi:ry="14.958655"
       d="M 80.374863,65.283905 A 15.405182,14.958655 0 1 1 49.564499,65.283905 A 15.405182,14.958655 0 1 1 80.374863,65.283905 z" />
    <path
       id="path4933"
       d="M 64.184854,421.43844 C 31.603974,434.97996 8.6848536,467.13085 8.6848536,504.59469 C 8.6848536,554.27469 49.004854,594.59469 98.684854,594.59469 C 148.36485,594.59469 188.68485,554.27469 188.68485,504.59469 C 188.68485,467.13085 165.76573,434.97996 133.18485,421.43844 L 64.184854,421.43844 z"
       style="fill:#000000;fill-opacity:1;stroke:none;stroke-width:1;stroke-miterlimit:4;stroke-dasharray:none;stroke-opacity:1" />
    <path
       id="path4935"
       d="M 33.687514,441.62418 C 18.401636,458.1174 9.0000136,480.37313 9.0000136,504.86743 C 9.0000146,531.13937 19.795495,554.85673 37.093764,571.62418 L 99.000009,508.38093 L 33.687514,441.62418 z"
       style="fill:#ffffff;fill-opacity:1;stroke:none;stroke-width:1;stroke-miterlimit:4;stroke-dasharray:none;stroke-opacity:1" />
    <path
       id="path4937"
       d="M 63.136857,421.43844 C 51.2733,426.3179 40.701409,433.62982 32.000014,442.71969 L 98.000017,508.03219 L 164.00001,442.71969 C 155.29861,433.62982 144.72672,426.3179 132.86316,421.43844 L 63.136857,421.43844 z"
       style="fill:#000000;fill-opacity:1;stroke:none;stroke-width:1;stroke-miterlimit:4;stroke-dasharray:none;stroke-opacity:1" />
    <path
       id="path4939"
       d="M 99.000025,508.03219 L 36.000014,569.90719 C 52.421039,585.20959 74.599967,594.59469 99.000025,594.59469 C 123.40007,594.59469 145.57901,585.20959 162.00001,569.90719 L 99.000025,508.03219 z"
       style="fill:#ffffff;fill-opacity:1;stroke:none;stroke-width:1;stroke-miterlimit:4;stroke-dasharray:none;stroke-opacity:1" />
    <path
       id="path4941"
       d="M 163.31251,441.62418 L 98.000014,508.38094 L 159.90626,571.62418 C 177.20453,554.85673 188.00001,531.13937 188.00001,504.86742 C 188.00001,480.37313 178.5984,458.1174 163.31251,441.62418 z"
       style="fill:#ffffff;fill-opacity:1;stroke:none;stroke-width:1;stroke-miterlimit:4;stroke-dasharray:none;stroke-opacity:1" />
    <path
       d="M 80.374863,65.283905 A 15.405182,14.958655 0 1 1 49.564499,65.283905 A 15.405182,14.958655 0 1 1 80.374863,65.283905 z"
       sodipodi:ry="14.958655"
       sodipodi:rx="15.405182"
       sodipodi:cy="65.283905"
       sodipodi:cx="64.969681"
       id="path4943"
       style="fill:#0000ff;fill-opacity:1;stroke:none;stroke-width:1;stroke-miterlimit:4;stroke-dasharray:none;stroke-opacity:1"
       sodipodi:type="arc"
       transform="matrix(1.6228306,0,0,1.6712732,-7.7333964,398.87995)" />
    <path
       style="fill:#000000;fill-opacity:1;stroke:none;stroke-width:1;stroke-miterlimit:4;stroke-dasharray:none;stroke-opacity:1"
       d="M 266.25991,416.38656 C 233.67903,429.92808 210.75991,462.07897 210.75991,499.54281 C 210.75991,549.22281 251.07991,589.54281 300.75991,589.54281 C 350.43991,589.54281 390.75991,549.22281 390.75991,499.54281 C 390.75991,462.07897 367.84079,429.92808 335.25991,416.38656 L 266.25991,416.38656 z"
       id="path4947" />
    <path
       style="fill:#00ff00;fill-opacity:1;stroke:none;stroke-width:1;stroke-miterlimit:4;stroke-dasharray:none;stroke-opacity:1"
       d="M 235.76257,436.5723 C 220.47669,453.06552 211.07507,475.32125 211.07507,499.81555 C 211.07507,526.08749 221.87055,549.80485 239.16882,566.5723 L 301.07506,503.32905 L 235.76257,436.5723 z"
       id="path4949" />
    <path
       style="fill:#000000;fill-opacity:1;stroke:none;stroke-width:1;stroke-miterlimit:4;stroke-dasharray:none;stroke-opacity:1"
       d="M 265.21191,416.38656 C 253.34836,421.26602 242.77647,428.57794 234.07507,437.66781 L 300.07507,502.98031 L 366.07507,437.66781 C 357.37367,428.57794 346.80178,421.26602 334.93822,416.38656 L 265.21191,416.38656 z"
       id="path4951" />
    <path
       style="fill:#00ff00;fill-opacity:1;stroke:none;stroke-width:1;stroke-miterlimit:4;stroke-dasharray:none;stroke-opacity:1"
       d="M 301.07508,502.98031 L 238.07507,564.85531 C 254.4961,580.15771 276.67502,589.54281 301.07508,589.54281 C 325.47513,589.54281 347.65407,580.15771 364.07507,564.85531 L 301.07508,502.98031 z"
       id="path4953" />
    <path
       style="fill:#ffffff;fill-opacity:1;stroke:none;stroke-width:1;stroke-miterlimit:4;stroke-dasharray:none;stroke-opacity:1"
       d="M 365.38757,436.5723 L 300.07507,503.32906 L 361.98132,566.5723 C 379.27959,549.80485 390.07507,526.08749 390.07507,499.81554 C 390.07507,475.32125 380.67346,453.06552 365.38757,436.5723 z"
       id="path4955" />
    <path
       transform="matrix(1.6228306,0,0,1.6712732,194.34166,393.82807)"
       sodipodi:type="arc"
       style="fill:#0000ff;fill-opacity:1;stroke:none;stroke-width:1;stroke-miterlimit:4;stroke-dasharray:none;stroke-opacity:1"
       id="path4957"
       sodipodi:cx="64.969681"
       sodipodi:cy="65.283905"
       sodipodi:rx="15.405182"
       sodipodi:ry="14.958655"
       d="M 80.374863,65.283905 A 15.405182,14.958655 0 1 1 49.564499,65.283905 A 15.405182,14.958655 0 1 1 80.374863,65.283905 z" />
    <path
       id="path4961"
       d="M 468.33497,420.17547 C 435.75409,433.71699 412.83497,465.86788 412.83497,503.33172 C 412.83497,553.01172 453.15497,593.33172 502.83497,593.33172 C 552.51497,593.33172 592.83497,553.01172 592.83497,503.33172 C 592.83497,465.86788 569.91585,433.71699 537.33497,420.17547 L 468.33497,420.17547 z"
       style="fill:#000000;fill-opacity:1;stroke:none;stroke-width:1;stroke-miterlimit:4;stroke-dasharray:none;stroke-opacity:1" />
    <path
       id="path4963"
       d="M 437.83763,440.36121 C 422.55175,456.85443 413.15013,479.11016 413.15013,503.60446 C 413.15013,529.8764 423.94561,553.59376 441.24388,570.36121 L 503.15013,507.11796 L 437.83763,440.36121 z"
       style="fill:#00ff00;fill-opacity:1;stroke:none;stroke-width:1;stroke-miterlimit:4;stroke-dasharray:none;stroke-opacity:1" />
    <path
       id="path4965"
       d="M 467.28697,420.17547 C 455.42342,425.05493 444.85152,432.36685 436.15013,441.45672 L 502.15013,506.76922 L 568.15013,441.45672 C 559.44873,432.36685 548.87684,425.05493 537.01328,420.17547 L 467.28697,420.17547 z"
       style="fill:#000000;fill-opacity:1;stroke:none;stroke-width:1;stroke-miterlimit:4;stroke-dasharray:none;stroke-opacity:1" />
    <path
       id="path4967"
       d="M 503.15014,506.76922 L 440.15013,568.64422 C 456.57115,583.94662 478.75008,593.33172 503.15014,593.33172 C 527.55019,593.33172 549.72913,583.94662 566.15013,568.64422 L 503.15014,506.76922 z"
       style="fill:#00ff00;fill-opacity:1;stroke:none;stroke-width:1;stroke-miterlimit:4;stroke-dasharray:none;stroke-opacity:1" />
    <path
       id="path4969"
       d="M 567.46263,440.36121 L 502.15013,507.11797 L 564.05638,570.36121 C 581.35465,553.59376 592.15013,529.8764 592.15013,503.60445 C 592.15013,479.11016 582.74852,456.85443 567.46263,440.36121 z"
       style="fill:#ffffff;fill-opacity:1;stroke:none;stroke-width:1;stroke-miterlimit:4;stroke-dasharray:none;stroke-opacity:1" />
    <path
       d="M 80.374863,65.283905 A 15.405182,14.958655 0 1 1 49.564499,65.283905 A 15.405182,14.958655 0 1 1 80.374863,65.283905 z"
       sodipodi:ry="14.958655"
       sodipodi:rx="15.405182"
       sodipodi:cy="65.283905"
       sodipodi:cx="64.969681"
       id="path4971"
       style="fill:#0000ff;fill-opacity:1;stroke:none;stroke-width:1;stroke-miterlimit:4;stroke-dasharray:none;stroke-opacity:1"
       sodipodi:type="arc"
       transform="matrix(1.6228306,0,0,1.6712732,396.41672,397.61698)" />
    <path
       style="fill:#000000;fill-opacity:1;stroke:none;stroke-width:1;stroke-miterlimit:4;stroke-dasharray:none;stroke-opacity:1"
       d="M 667.88409,413.86062 C 635.30321,427.40214 612.38409,459.55303 612.38409,497.01687 C 612.38409,546.69687 652.70409,587.01687 702.38409,587.01687 C 752.06409,587.01687 792.38409,546.69687 792.38409,497.01687 C 792.38409,459.55303 769.46497,427.40214 736.88409,413.86062 L 667.88409,413.86062 z"
       id="path4975" />
    <path
       style="fill:#00ff00;fill-opacity:1;stroke:none;stroke-width:1;stroke-miterlimit:4;stroke-dasharray:none;stroke-opacity:1"
       d="M 637.38675,434.04636 C 622.10087,450.53958 612.69925,472.79531 612.69925,497.28961 C 612.69925,523.56155 623.49473,547.27891 640.793,564.04636 L 702.69925,500.80311 L 637.38675,434.04636 z"
       id="path4977" />
    <path
       style="fill:#000000;fill-opacity:1;stroke:none;stroke-width:1;stroke-miterlimit:4;stroke-dasharray:none;stroke-opacity:1"
       d="M 666.83609,413.86062 C 654.97254,418.74008 644.40065,426.052 635.69925,435.14187 L 701.69925,500.45437 L 767.69925,435.14187 C 758.99785,426.052 748.42596,418.74008 736.5624,413.86062 L 666.83609,413.86062 z"
       id="path4979" />
    <path
       style="fill:#00ff00;fill-opacity:1;stroke:none;stroke-width:1;stroke-miterlimit:4;stroke-dasharray:none;stroke-opacity:1"
       d="M 702.69926,500.45437 L 639.69925,562.32937 C 656.12027,577.63177 678.2992,587.01687 702.69926,587.01687 C 727.09931,587.01687 749.27825,577.63177 765.69925,562.32937 L 702.69926,500.45437 z"
       id="path4981" />
    <path
       style="fill:#ffffff;fill-opacity:1;stroke:none;stroke-width:1;stroke-miterlimit:4;stroke-dasharray:none;stroke-opacity:1"
       d="M 767.01175,434.04636 L 701.69925,500.80312 L 763.6055,564.04636 C 780.90377,547.27891 791.69925,523.56155 791.69925,497.2896 C 791.69925,472.79531 782.29764,450.53958 767.01175,434.04636 z"
       id="path4983" />
    <path
       transform="matrix(1.6228306,0,0,1.6712732,595.96584,391.30213)"
       sodipodi:type="arc"
       style="fill:#0000ff;fill-opacity:1;stroke:none;stroke-width:1;stroke-miterlimit:4;stroke-dasharray:none;stroke-opacity:1"
       id="path4985"
       sodipodi:cx="64.969681"
       sodipodi:cy="65.283905"
       sodipodi:rx="15.405182"
       sodipodi:ry="14.958655"
       d="M 80.374863,65.283905 A 15.405182,14.958655 0 1 1 49.564499,65.283905 A 15.405182,14.958655 0 1 1 80.374863,65.283905 z" />
  </g>
</svg>
