<?xml version="1.0" encoding="UTF-8" standalone="no"?>
<!-- Created with Inkscape (http://www.inkscape.org/) -->
<svg
   xmlns:dc="http://purl.org/dc/elements/1.1/"
   xmlns:cc="http://creativecommons.org/ns#"
   xmlns:rdf="http://www.w3.org/1999/02/22-rdf-syntax-ns#"
   xmlns:svg="http://www.w3.org/2000/svg"
   xmlns="http://www.w3.org/2000/svg"
   xmlns:sodipodi="http://sodipodi.sourceforge.net/DTD/sodipodi-0.dtd"
   xmlns:inkscape="http://www.inkscape.org/namespaces/inkscape"
   width="612pt"
   height="792pt"
   id="svg2809"
   sodipodi:version="0.32"
   inkscape:version="0.46"
   sodipodi:docname="new_template.svg"
   inkscape:output_extension="org.inkscape.output.svg.inkscape">
  <defs
     id="defs2811">
    <inkscape:perspective
       sodipodi:type="inkscape:persp3d"
       inkscape:vp_x="0 : 495 : 1"
       inkscape:vp_y="0 : 1000 : 0"
       inkscape:vp_z="765 : 495 : 1"
       inkscape:persp3d-origin="382.5 : 330 : 1"
       id="perspective2818" />
  </defs>
  <sodipodi:namedview
     inkscape:document-units="in"
     pagecolor="#ffffff"
     bordercolor="#666666"
     borderopacity="1.0"
     inkscape:pageopacity="0.0"
     inkscape:pageshadow="2"
     inkscape:zoom="1.0182338"
     inkscape:cx="160.27703"
     inkscape:cy="617.85113"
     inkscape:current-layer="g2667"
     id="namedview2813"
     showgrid="false"
     inkscape:window-width="1920"
     inkscape:window-height="994"
     inkscape:window-x="-5"
     inkscape:window-y="-3" />
  <metadata
     id="metadata2815">
    <rdf:RDF>
      <cc:Work
         rdf:about="">
        <dc:format>image/svg+xml</dc:format>
        <dc:type
           rdf:resource="http://purl.org/dc/dcmitype/StillImage" />
      </cc:Work>
    </rdf:RDF>
  </metadata>
  <g
     inkscape:label="Layer 1"
     inkscape:groupmode="layer"
     id="layer1">
    <g
       transform="matrix(3.5433073,0,0,3.5433073,691.63897,42.03694)"
       id="g2667">
      <path
         id="path2671"
         d="M -144.34229,26.71744 C -160.74361,42.70443 -170.93603,65.02194 -170.93603,89.71744 C -170.93603,138.29344 -131.51203,177.71745 -82.93604,177.71744 C -34.36004,177.71744 5.06396,138.29344 5.06396,89.71744 C 5.06396,65.02623 -5.13348,42.70385 -21.52979,26.71744 L -144.34229,26.71744 z"
         style="fill:none;stroke:#000000;stroke-opacity:1;stroke-width:0.35277776;stroke-miterlimit:4;stroke-dasharray:none" />
      <path
         transform="matrix(1.1311214,0,0,1.0418224,-12.22175,-27.48124)"
         d="M -40.415012,112.49392 A 22.101959,23.996412 0 1 1 -84.618931,112.49392 A 22.101959,23.996412 0 1 1 -40.415012,112.49392 z"
         sodipodi:ry="23.996412"
         sodipodi:rx="22.101959"
         sodipodi:cy="112.49392"
         sodipodi:cx="-62.516972"
         id="path2673"
         style="fill:none;stroke:#000000;stroke-opacity:1;stroke-width:0.32497483999999999;stroke-miterlimit:4;stroke-dasharray:none"
         sodipodi:type="arc" />
      <path
         sodipodi:type="arc"
         style="fill:none;stroke:#000000;stroke-opacity:1;stroke-width:0.41213135000000001;stroke-miterlimit:4;stroke-dasharray:none"
         id="path2675"
         sodipodi:cx="-209.02139"
         sodipodi:cy="177.53683"
         sodipodi:rx="23.364929"
         sodipodi:ry="23.364929"
         d="M -185.65646,177.53683 A 23.364929,23.364929 0 1 1 -232.38632,177.53683 A 23.364929,23.364929 0 1 1 -185.65646,177.53683 z"
         transform="matrix(0.8559838,0,0,0.8559838,44.516,-98.65906)" />
      <path
         transform="matrix(0.8559838,0,0,0.8559838,147.44978,-98.65906)"
         d="M -185.65646,177.53683 A 23.364929,23.364929 0 1 1 -232.38632,177.53683 A 23.364929,23.364929 0 1 1 -185.65646,177.53683 z"
         sodipodi:ry="23.364929"
         sodipodi:rx="23.364929"
         sodipodi:cy="177.53683"
         sodipodi:cx="-209.02139"
         id="path2677"
         style="fill:none;stroke:#000000;stroke-opacity:1;stroke-width:0.41213135000000001;stroke-miterlimit:4;stroke-dasharray:none"
         sodipodi:type="arc" />
      <path
         sodipodi:type="arc"
         style="fill:none;stroke:#000000;stroke-opacity:1;stroke-width:0.41213135000000001;stroke-miterlimit:4;stroke-dasharray:none"
         id="path2679"
         sodipodi:cx="-209.02139"
         sodipodi:cy="177.53683"
         sodipodi:rx="23.364929"
         sodipodi:ry="23.364929"
         d="M -185.65646,177.53683 A 23.364929,23.364929 0 1 1 -232.38632,177.53683 A 23.364929,23.364929 0 1 1 -185.65646,177.53683 z"
         transform="matrix(0.8559838,0,0,0.8559838,62.516,-10.25121)" />
      <path
         sodipodi:type="arc"
         style="fill:none;stroke:#000000;stroke-opacity:1;stroke-width:0.41213135000000001;stroke-miterlimit:4;stroke-dasharray:none"
         id="path2681"
         sodipodi:cx="-209.02139"
         sodipodi:cy="177.53683"
         sodipodi:rx="23.364929"
         sodipodi:ry="23.364929"
         d="M -185.65646,177.53683 A 23.364929,23.364929 0 1 1 -232.38632,177.53683 A 23.364929,23.364929 0 1 1 -185.65646,177.53683 z"
         transform="matrix(0.8559838,0,0,0.8559838,129.44978,-10.25121)" />
    </g>
  </g>
</svg>
